<?xml version="1.0" encoding="UTF-8"?>
<svg id="Layer_2" data-name="Layer 2" xmlns="http://www.w3.org/2000/svg" viewBox="0 0 777.12 777.12">
  <g id="_Radial_Repeat_" data-name="&amp;lt;Radial Repeat&amp;gt;">
    <g>
      <path d="M534.04,539.6c-3.33-12.34-7.29-22.83-10.96-31.25-1.65-3.79-4.37-9.99-8.69-17.73-5.32-9.53-10.95-17.61-16.21-24.28-.9-1.15-.11-2.72,1.27-2.5,8.88,1.41,19.51,3.88,31.17,8.27,16.07,6.06,28.99,13.83,38.56,20.66.77.55,1.58-.41.96-1.14-7.85-9.38-15-15.12-19.94-18.56-5.51-3.84-13.02-8.11-21.05-12.68-1.51-.86-3.89-2.18-6.97-3.74-.24-.12-.49-.25-.73-.37-1.43-.71-1.11-2.84.43-2.81,1.83.04,3.67.11,5.5.21,7.71.41,15.4,1.33,23.06,2.78,40.55,7.57,79.72,29.33,109.65,63.82,4.93,5.68,7.82,9.45,9.32,11.52,6.04,8.39,10.14,16.2,12.89,22.26.49,1.08-.37,2.15-1.48,1.9-17.94-4.12-31.85-3.92-41.21-2.99-16.59,1.65-26.32,6.34-48.24,5.65-5.62-.18-12.07-.41-20.44-2.28-16.59-3.71-29.21-11.27-36.9-16.73Z" fill="#2f5e5a"/>
      <path d="M369.7,776.82c-.22.43-.83.4-1.08-.05-1.38-2.5-2.72-5.01-4-7.53-8.03-15.81-14.19-32.14-18.54-48.66-1.63-6.23-3.01-12.5-4.13-18.77,0,0-2.8-15.73-3.44-31.63-1.7-42,11.43-80.28,11.43-80.28,8.95-26.1,21-44.34,28.06-53.93,13.62-18.5,26.84-29.51,40.27-40.69,16.17-13.46,31.86-23.83,45.73-31.78,1.36-.78,3.16.31,3.26,1.97,1.2,20.17.77,46.95-5.5,77.1-5.16,24.8-12.89,45.25-20.33,61.08-.71,1.5,1.33,3.01,2.42,1.8,11.55-12.75,26.7-33.37,36.38-62.81,9.77-29.69,10.05-56.39,8.85-73.41-.07-.99,1.15-1.36,1.74-.53.74,1.04,1.48,2.07,2.23,3.11h0c6.14,8.95,14.34,22.23,21.68,39.34,5.48,12.77,9.9,23.08,11.8,37.41,2.71,20.48-1.66,36.81-4.62,46.9,0,0-15.34,52.27-65.86,86.16-6.19,4.15-8.11,5.57-11.97,8.37-2,1.46-4.23,3.12-6.78,5.12-3.39,2.64-13.96,10.95-24.25,21.54-1.08,1.11-2.16,2.23-3.23,3.36-4.57,4.82-8.91,9.8-13.02,14.93-8.17,10.17-15.45,20.92-21.86,32.15-1.82,3.2-3.58,6.45-5.26,9.74Z" fill="#2f5e5a"/>
    </g>
  </g>
  <g id="_Radial_Repeat_-2" data-name="&amp;lt;Radial Repeat&amp;gt;">
    <g>
      <path d="M237.53,534.04c12.34-3.33,22.83-7.29,31.25-10.96,3.79-1.65,9.99-4.37,17.73-8.69,9.53-5.32,17.61-10.95,24.28-16.21,1.15-.9,2.72-.11,2.5,1.27-1.41,8.88-3.88,19.51-8.27,31.17-6.06,16.07-13.83,28.99-20.66,38.56-.55.77.41,1.58,1.14.96,9.38-7.85,15.12-15,18.56-19.94,3.84-5.51,8.11-13.02,12.68-21.05.86-1.51,2.18-3.89,3.74-6.97.12-.24.25-.49.37-.73.71-1.43,2.84-1.11,2.81.43-.04,1.83-.11,3.67-.21,5.5-.41,7.71-1.33,15.4-2.78,23.06-7.57,40.55-29.33,79.72-63.82,109.65-5.68,4.93-9.45,7.82-11.52,9.32-8.39,6.04-16.2,10.14-22.26,12.89-1.08.49-2.15-.37-1.9-1.48,4.12-17.94,3.92-31.85,2.99-41.21-1.65-16.59-6.34-26.32-5.65-48.24.18-5.62.41-12.07,2.28-20.44,3.71-16.59,11.27-29.21,16.73-36.9Z" fill="#2f5e5a"/>
      <path d="M.3,369.71c-.43-.22-.4-.83.05-1.08,2.5-1.38,5.01-2.72,7.53-4,15.81-8.03,32.14-14.19,48.66-18.54,6.23-1.63,12.5-3.01,18.77-4.13,0,0,15.73-2.8,31.63-3.44,42-1.7,80.28,11.43,80.28,11.43,26.1,8.95,44.34,21,53.93,28.06,18.5,13.62,29.51,26.84,40.69,40.27,13.46,16.17,23.83,31.86,31.78,45.73.78,1.36-.31,3.16-1.97,3.26-20.17,1.2-46.95.77-77.1-5.5-24.8-5.16-45.25-12.89-61.08-20.33-1.5-.71-3.01,1.33-1.8,2.42,12.75,11.55,33.37,26.7,62.81,36.38,29.69,9.77,56.39,10.05,73.41,8.85.99-.07,1.36,1.15.53,1.74-1.04.74-2.07,1.48-3.11,2.23h-.01c-8.94,6.15-22.21,14.35-39.33,21.69-12.77,5.48-23.08,9.9-37.41,11.8-20.48,2.71-36.81-1.66-46.9-4.62,0,0-52.27-15.34-86.16-65.86-4.15-6.19-5.57-8.11-8.37-11.97-1.46-2-3.12-4.23-5.12-6.78-2.64-3.39-10.95-13.96-21.54-24.25-1.11-1.08-2.23-2.16-3.36-3.23-4.82-4.57-9.8-8.91-14.93-13.02-10.17-8.17-20.92-15.45-32.15-21.86-3.2-1.82-6.45-3.58-9.74-5.26Z" fill="#2f5e5a"/>
    </g>
  </g>
  <g id="_Radial_Repeat_-3" data-name="&amp;lt;Radial Repeat&amp;gt;">
    <g>
      <path d="M243.08,237.53c3.33,12.34,7.29,22.83,10.96,31.25,1.65,3.79,4.37,9.99,8.69,17.73,5.32,9.53,10.95,17.61,16.21,24.28.9,1.15.11,2.72-1.27,2.5-8.88-1.41-19.51-3.88-31.17-8.27-16.07-6.06-28.99-13.83-38.56-20.66-.77-.55-1.58.41-.96,1.14,7.85,9.38,15,15.12,19.94,18.56,5.51,3.84,13.02,8.11,21.05,12.68,1.51.86,3.89,2.18,6.97,3.74.24.12.49.25.73.37,1.43.71,1.11,2.84-.43,2.81-1.83-.04-3.67-.11-5.5-.21-7.71-.41-15.4-1.33-23.06-2.78-40.55-7.57-79.72-29.33-109.65-63.82-4.93-5.68-7.82-9.45-9.32-11.52-6.04-8.39-10.14-16.2-12.89-22.26-.49-1.08.37-2.15,1.48-1.9,17.94,4.12,31.85,3.92,41.21,2.99,16.59-1.65,26.32-6.34,48.24-5.65,5.62.18,12.07.41,20.44,2.28,16.59,3.71,29.21,11.27,36.9,16.73Z" fill="#2f5e5a"/>
      <path d="M407.42.3c.22-.43.83-.4,1.08.05,1.38,2.5,2.72,5.01,4,7.53,8.03,15.81,14.19,32.14,18.54,48.66,1.63,6.23,3.01,12.5,4.13,18.77,0,0,2.8,15.73,3.44,31.63,1.7,42-11.43,80.28-11.43,80.28-8.95,26.1-21,44.34-28.06,53.93-13.62,18.5-26.84,29.51-40.27,40.69-16.17,13.46-31.86,23.83-45.73,31.78-1.36.78-3.16-.31-3.26-1.97-1.2-20.17-.77-46.95,5.5-77.1,5.16-24.8,12.89-45.25,20.33-61.08.71-1.5-1.33-3.01-2.42-1.8-11.55,12.75-26.7,33.37-36.38,62.81-9.77,29.69-10.05,56.39-8.85,73.41.07.99-1.15,1.36-1.74.53-.74-1.04-1.48-2.07-2.23-3.11h0c-6.14-8.95-14.34-22.23-21.68-39.34-5.48-12.77-9.9-23.08-11.8-37.41-2.71-20.48,1.66-36.81,4.62-46.9,0,0,15.34-52.27,65.86-86.16,6.19-4.15,8.11-5.57,11.97-8.37,2-1.46,4.23-3.12,6.78-5.12,3.39-2.64,13.96-10.95,24.25-21.54,1.08-1.11,2.16-2.23,3.23-3.36,4.57-4.82,8.91-9.8,13.02-14.93,8.17-10.17,15.45-20.92,21.86-32.15,1.82-3.2,3.58-6.45,5.26-9.74Z" fill="#2f5e5a"/>
    </g>
  </g>
  <g id="_Radial_Repeat_-4" data-name="&amp;lt;Radial Repeat&amp;gt;">
    <g>
      <path d="M539.6,243.08c-12.34,3.33-22.83,7.29-31.25,10.96-3.79,1.65-9.99,4.37-17.73,8.69-9.53,5.32-17.61,10.95-24.28,16.21-1.15.9-2.72.11-2.5-1.27,1.41-8.88,3.88-19.51,8.27-31.17,6.06-16.07,13.83-28.99,20.66-38.56.55-.77-.41-1.58-1.14-.96-9.38,7.85-15.12,15-18.56,19.94-3.84,5.51-8.11,13.02-12.68,21.05-.86,1.51-2.18,3.89-3.74,6.97-.12.24-.25.49-.37.73-.71,1.43-2.84,1.11-2.81-.43.04-1.83.11-3.67.21-5.5.41-7.71,1.33-15.4,2.78-23.06,7.57-40.55,29.33-79.72,63.82-109.65,5.68-4.93,9.45-7.82,11.52-9.32,8.39-6.04,16.2-10.14,22.26-12.89,1.08-.49,2.15.37,1.9,1.48-4.12,17.94-3.92,31.85-2.99,41.21,1.65,16.59,6.34,26.32,5.65,48.24-.18,5.62-.41,12.07-2.28,20.44-3.71,16.59-11.27,29.21-16.73,36.9Z" fill="#2f5e5a"/>
      <path d="M776.82,407.42c.43.22.4.83-.05,1.08-2.5,1.38-5.01,2.72-7.53,4-15.81,8.03-32.14,14.19-48.66,18.54-6.23,1.63-12.5,3.01-18.77,4.13,0,0-15.73,2.8-31.63,3.44-42,1.7-80.28-11.43-80.28-11.43-26.1-8.95-44.34-21-53.93-28.06-18.5-13.62-29.51-26.84-40.69-40.27-13.46-16.17-23.83-31.86-31.78-45.73-.78-1.36.31-3.16,1.97-3.26,20.17-1.2,46.95-.77,77.1,5.5,24.8,5.16,45.25,12.89,61.08,20.33,1.5.71,3.01-1.33,1.8-2.42-12.75-11.55-33.37-26.7-62.81-36.38-29.69-9.77-56.39-10.05-73.41-8.85-.99.07-1.36-1.15-.53-1.74,1.04-.74,2.07-1.48,3.11-2.23h.01c8.94-6.15,22.21-14.35,39.33-21.69,12.77-5.48,23.08-9.9,37.41-11.8,20.48-2.71,36.81,1.66,46.9,4.62,0,0,52.27,15.34,86.16,65.86,4.15,6.19,5.57,8.11,8.37,11.97,1.46,2,3.12,4.23,5.12,6.78,2.64,3.39,10.95,13.96,21.54,24.25,1.11,1.08,2.23,2.16,3.36,3.23,4.82,4.57,9.8,8.91,14.93,13.02,10.17,8.17,20.92,15.45,32.15,21.86,3.2,1.82,6.45,3.58,9.74,5.26Z" fill="#2f5e5a"/>
    </g>
  </g>
</svg>