<?xml version="1.0" encoding="UTF-8"?>
<svg id="Layer_1" data-name="Layer 1" xmlns="http://www.w3.org/2000/svg" viewBox="0 0 1361.88 1080">
  <g id="_1st_V" data-name="1st_V">
    <g>
      <path d="M549.08,762.45c-13.41-11.66-29.32-20.55-47.84-26.68-18.48-6.11-39.12-9.17-61.91-9.17s-42.98,3.06-61.46,9.17c-18.52,6.13-34.43,15.03-47.8,26.68-13.38,11.67-23.62,25.76-30.75,42.26-7.12,16.52-10.67,35.16-10.67,55.93s3.54,38.91,10.67,55.27c7.12,16.38,17.37,30.38,30.75,42.06,13.38,11.67,29.29,20.57,47.8,26.68,18.48,6.11,38.98,9.17,61.46,9.17s43.43-3.06,61.91-9.17c18.52-6.11,34.43-15.01,47.84-26.68,13.34-11.67,23.66-25.67,30.92-42.06,7.26-16.36,10.91-34.79,10.91-55.27s-3.65-39.41-10.91-55.93c-7.26-16.5-17.58-30.59-30.92-42.26ZM514.68,922.54c-6.98,17.37-16.92,30.82-29.88,40.35-12.96,9.54-28.11,14.3-45.48,14.3s-32-4.76-44.82-14.3c-12.79-9.54-22.76-22.98-29.88-40.35-7.12-17.35-10.67-37.99-10.67-61.89s3.54-45.04,10.67-62.55c7.12-17.49,17.09-31.01,29.88-40.54,12.82-9.54,27.76-14.31,44.82-14.31s32.52,4.78,45.48,14.31c12.96,9.54,22.89,23.05,29.88,40.54,6.98,17.51,10.46,38.36,10.46,62.55s-3.47,44.54-10.46,61.89Z" fill="#2f5e5a"/>
      <path d="M865.65,762.45c-13.41-11.66-29.32-20.55-47.84-26.68-18.48-6.11-39.12-9.17-61.91-9.17s-42.98,3.06-61.46,9.17c-18.52,6.13-34.43,15.03-47.8,26.68-13.38,11.67-23.62,25.76-30.75,42.26-7.12,16.52-10.67,35.16-10.67,55.93s3.54,38.91,10.67,55.27c7.12,16.38,17.37,30.38,30.75,42.06,13.38,11.67,29.29,20.57,47.8,26.68,18.48,6.11,38.98,9.17,61.46,9.17s43.43-3.06,61.91-9.17c18.52-6.11,34.43-15.01,47.84-26.68,13.34-11.67,23.66-25.67,30.92-42.06,7.26-16.36,10.91-34.79,10.91-55.27s-3.65-39.41-10.91-55.93c-7.26-16.5-17.58-30.59-30.92-42.26ZM831.25,922.54c-6.98,17.37-16.92,30.82-29.88,40.35-12.96,9.54-28.11,14.3-45.48,14.3s-32-4.76-44.82-14.3c-12.79-9.54-22.76-22.98-29.88-40.35-7.12-17.35-10.67-37.99-10.67-61.89s3.54-45.04,10.67-62.55c7.12-17.49,17.09-31.01,29.88-40.54,12.82-9.54,27.76-14.31,44.82-14.31s32.52,4.78,45.48,14.31c12.96,9.54,22.89,23.05,29.88,40.54,6.98,17.51,10.46,38.36,10.46,62.55s-3.47,44.54-10.46,61.89Z" fill="#2f5e5a"/>
      <path d="M1125.12,730.65c-6.25.71-12.09,1.08-17.51,1.08h-157.52c-5.14,0-10.74-.36-16.88-1.08-6.11-.69-11.67-1.63-16.64-2.76-4.97-1.15-8.75-2-11.29-2.57v67.45h4.69v-3.84c0-12.23,3.34-21.9,10.04-29.03,6.67-7.12,16.26-10.82,28.8-11.1h49.09v212.6c-.28,6.25-2.64,11.59-7.05,16-4.41,4.43-9.73,6.62-15.98,6.62h-4.72v4.27h117.84v-4.27h-4.69c-6.57,0-12.12-2.19-16.68-6.62-4.55-4.41-6.81-9.75-6.81-16v-212.6h49.51c12.23.28,21.85,3.98,28.84,11.1,6.95,7.12,10.32,16.8,10.04,29.03v3.84h4.69v-67.45c-2.02.85-5.56,1.79-10.7,2.78-5.11,1.01-10.8,1.86-17.06,2.55Z" fill="#2f5e5a"/>
      <path d="M1336.42,877.29c-6.53-10.8-15.5-19.06-26.89-24.75l-67.02-41.41c-5.42-3.13-10.32-6.25-14.73-9.4-4.41-3.13-7.82-6.76-10.25-10.87-2.4-4.13-3.34-8.75-2.78-13.88.59-9.95,5.07-17.93,13.45-23.9,8.41-5.98,19.46-8.96,33.11-8.96,17.06,0,30.16,3.84,39.26,11.52,9.1,7.68,13.65,18.08,13.65,31.16h3.86l5.56-52.08c-.07-.03-.18-.05-.25-.08l.25-4.2h-23.49c-3.24-.38-6.63-.74-10.25-1.06-7.96-.71-16.02-1.35-24.11-1.93-8.13-.57-15.01-.85-20.71-.85-14.24,0-26.89,2.55-38.01,7.68-11.08,5.12-19.98,12.52-26.68,22.2-6.67,9.68-10.74,21.35-12.16,35-1.7,14.52.63,27.9,7.05,40.14,6.39,12.23,16.71,22.04,30.96,29.44l60.59,38.42c11.4,5.98,19.59,12.04,24.56,18.15,4.97,6.11,7.47,13.01,7.47,20.71,0,10.23-4.13,19.21-12.37,26.89-8.27,7.68-20.64,11.52-37.14,11.52-15.11,0-28.04-3.2-38.88-9.61-10.8-6.39-18.97-15.01-24.53-25.81-5.56-10.82-7.89-22.63-7.05-35.44h-3.4c-3.4,5.4-6.25,12.16-8.55,20.27-2.29,8.11-3.54,16.22-3.86,24.34-.28,8.11.73,15.01,3.02,20.71,3.96,4.27,9.73,8.11,17.27,11.53,7.54,3.4,16.57,6.11,27.1,8.09,10.53,2,21.92,2.99,34.19,2.99,19.91,0,37.17-3.06,51.83-9.17,14.66-6.11,26.2-15.01,34.6-26.68,8.37-11.67,13.03-25.47,13.86-41.41.87-15.37-1.98-28.45-8.55-39.28Z" fill="#2f5e5a"/>
      <path d="M320.84,1007.3c-16.68-15.23-32.83-32.95-48.46-53.16-12.54-15.37-23.76-29.6-33.73-42.7-9.97-13.08-20.05-24.75-30.29-35-10.25-10.25-21.78-18.78-34.6-25.61,14.8.85,28.42-2.07,40.79-8.75,12.37-6.69,22.34-16.36,29.88-29.03,7.54-12.66,11.33-27.39,11.33-44.19,0-15.08-3.3-27.76-9.83-37.99-6.53-10.25-15.15-18.36-25.81-24.34-10.7-5.98-22.41-10.32-35.23-13.03-12.82-2.69-25.6-4.05-38.42-4.05H0v4.27h5.56c7.4,0,13.72,2.62,19,7.89,5.25,5.28,8.03,11.6,8.3,19v236.51c-.28,7.68-3.13,14.09-8.51,19.21-5.42,5.12-11.67,7.68-18.8,7.68H0v4.27h129.34v-4.27h-5.11c-7.4,0-13.79-2.62-19.21-7.89-5.42-5.26-8.09-11.6-8.09-19v-248.89h32.41c10.25,0,19.73,2.35,28.42,7.05,8.65,4.69,15.63,11.45,20.91,20.27,5.25,8.82,8.16,19.65,8.75,32.45.28,4.85.21,8.96-.24,12.37-.42,3.42-.9,6.13-1.49,8.11-1.7,9.69-4.9,17.81-9.59,24.34-4.69,6.55-10.11,11.6-16.22,15.16-6.11,3.56-12.3,6.11-18.55,7.68-6.29,1.56-11.99,2.35-17.09,2.35h-13.24v4.27c4,.85,7.89,3.7,11.74,8.55,3.86,4.83,7.89,10.53,12.16,17.08,3.44,4.55,7.54,10.39,12.4,17.49,4.83,7.12,10.01,14.94,15.56,23.49,5.56,8.53,11.26,17.21,17.09,26.04,5.8,8.82,11.5,17.37,17.06,25.62,5.56,8.25,10.6,15.51,15.15,21.77,12.23,18.5,25.19,34.01,38.88,46.54,13.65,12.51,27.52,22.41,41.62,29.67,14.07,7.26,28.18,12.3,42.25,15.15,14.11,2.85,27.69,4.06,40.79,3.63,13.06-.42,25.47-2.14,37.14-5.12,11.67-2.99,22.03-6.76,31.16-11.31v-4.27c-25.33-.28-48.05-4.76-68.09-13.45-20.08-8.69-38.42-20.64-55.07-35.85Z" fill="#2f5e5a"/>
    </g>
    <g>
      <path d="M496.37,1063.25h-17.93l-3.08,8.75h-7.33l15.34-42.88h8.13l15.34,42.88h-7.39l-3.08-8.75ZM494.4,1057.52l-6.96-19.9-7.02,19.9h13.98Z" fill="#2f5e5a"/>
      <path d="M541.44,1039.07c2.07-1.05,4.38-1.57,6.93-1.57,3,0,5.71.72,8.13,2.16,2.42,1.44,4.33,3.48,5.73,6.13,1.4,2.65,2.09,5.68,2.09,9.09s-.7,6.46-2.09,9.15c-1.4,2.69-3.32,4.79-5.76,6.28-2.44,1.5-5.14,2.25-8.1,2.25-2.63,0-4.96-.51-6.99-1.54-2.03-1.03-3.65-2.34-4.84-3.94v4.93h-7.02v-45.59h7.02v16.69c1.19-1.64,2.82-2.99,4.9-4.03ZM555.73,1048.8c-.97-1.7-2.24-3-3.82-3.88-1.58-.88-3.28-1.32-5.08-1.32s-3.44.45-5.02,1.36c-1.58.9-2.85,2.22-3.82,3.94-.97,1.72-1.45,3.76-1.45,6.1s.48,4.38,1.45,6.13c.96,1.75,2.24,3.07,3.82,3.97,1.58.9,3.25,1.36,5.02,1.36s3.5-.46,5.08-1.39c1.58-.92,2.85-2.27,3.82-4.04.96-1.76,1.45-3.82,1.45-6.16s-.48-4.36-1.45-6.07Z" fill="#2f5e5a"/>
      <path d="M582.4,1038.95c1.7-.96,3.73-1.45,6.07-1.45v7.27h-1.79c-2.75,0-4.84.7-6.25,2.09-1.42,1.4-2.13,3.82-2.13,7.27v17.87h-7.02v-33.94h7.02v4.93c1.03-1.72,2.39-3.07,4.1-4.04Z" fill="#2f5e5a"/>
      <path d="M594.72,1045.81c1.42-2.63,3.35-4.67,5.79-6.13,2.44-1.46,5.14-2.19,8.1-2.19,2.67,0,5,.52,6.99,1.57,1.99,1.05,3.58,2.35,4.77,3.91v-4.93h7.08v33.94h-7.08v-5.05c-1.19,1.6-2.81,2.94-4.87,4-2.05,1.07-4.4,1.6-7.02,1.6-2.92,0-5.59-.75-8.01-2.25-2.42-1.5-4.34-3.59-5.76-6.28-1.42-2.69-2.13-5.74-2.13-9.15s.71-6.43,2.13-9.06ZM618.93,1048.89c-.97-1.72-2.23-3.04-3.79-3.94-1.56-.9-3.24-1.36-5.05-1.36s-3.49.44-5.05,1.32c-1.56.88-2.82,2.18-3.79,3.88-.97,1.7-1.45,3.73-1.45,6.07s.48,4.4,1.45,6.16c.96,1.77,2.24,3.11,3.82,4.04,1.58.92,3.25,1.39,5.02,1.39s3.49-.45,5.05-1.36c1.56-.9,2.82-2.23,3.79-3.97.96-1.75,1.45-3.79,1.45-6.13s-.48-4.37-1.45-6.1Z" fill="#2f5e5a"/>
      <path d="M661.01,1039.16c2.11,1.11,3.77,2.75,4.96,4.93,1.19,2.18,1.79,4.8,1.79,7.88v20.02h-6.96v-18.97c0-3.04-.76-5.37-2.28-6.99-1.52-1.62-3.59-2.43-6.22-2.43s-4.71.81-6.25,2.43c-1.54,1.62-2.31,3.95-2.31,6.99v18.97h-7.02v-33.94h7.02v3.88c1.15-1.4,2.62-2.48,4.4-3.27,1.79-.78,3.69-1.17,5.7-1.17,2.67,0,5.06.55,7.18,1.66Z" fill="#2f5e5a"/>
      <path d="M676.47,1045.81c1.42-2.63,3.35-4.67,5.79-6.13,2.44-1.46,5.16-2.19,8.16-2.19,2.22,0,4.4.48,6.56,1.45,2.16.97,3.87,2.25,5.14,3.85v-16.39h7.08v45.59h-7.08v-5.11c-1.15,1.64-2.74,3-4.77,4.07-2.03,1.07-4.36,1.6-6.99,1.6-2.96,0-5.66-.75-8.1-2.25-2.44-1.5-4.37-3.59-5.79-6.28-1.42-2.69-2.13-5.74-2.13-9.15s.71-6.43,2.13-9.06ZM700.68,1048.89c-.97-1.72-2.23-3.04-3.79-3.94-1.56-.9-3.24-1.36-5.05-1.36s-3.49.44-5.05,1.32c-1.56.88-2.82,2.18-3.79,3.88-.97,1.7-1.45,3.73-1.45,6.07s.48,4.4,1.45,6.16c.96,1.77,2.24,3.11,3.82,4.04,1.58.92,3.25,1.39,5.02,1.39s3.49-.45,5.05-1.36c1.56-.9,2.82-2.23,3.79-3.97.96-1.75,1.45-3.79,1.45-6.13s-.48-4.37-1.45-6.1Z" fill="#2f5e5a"/>
      <path d="M746.39,1039.07c2.07-1.05,4.38-1.57,6.93-1.57,3,0,5.71.72,8.13,2.16,2.42,1.44,4.33,3.48,5.73,6.13,1.4,2.65,2.09,5.68,2.09,9.09s-.7,6.46-2.09,9.15c-1.4,2.69-3.32,4.79-5.76,6.28-2.44,1.5-5.14,2.25-8.1,2.25-2.63,0-4.96-.51-6.99-1.54-2.03-1.03-3.65-2.34-4.84-3.94v4.93h-7.02v-45.59h7.02v16.69c1.19-1.64,2.82-2.99,4.9-4.03ZM760.69,1048.8c-.97-1.7-2.24-3-3.82-3.88-1.58-.88-3.28-1.32-5.08-1.32s-3.44.45-5.02,1.36c-1.58.9-2.85,2.22-3.82,3.94-.97,1.72-1.45,3.76-1.45,6.1s.48,4.38,1.45,6.13c.96,1.75,2.24,3.07,3.82,3.97,1.58.9,3.25,1.36,5.02,1.36s3.5-.46,5.08-1.39c1.58-.92,2.85-2.27,3.82-4.04.96-1.76,1.45-3.82,1.45-6.16s-.48-4.36-1.45-6.07Z" fill="#2f5e5a"/>
      <path d="M806.8,1038.05l-20.82,49.9h-7.27l6.9-16.51-13.37-33.39h7.82l9.55,25.87,9.92-25.87h7.27Z" fill="#2f5e5a"/>
      <path d="M853.92,1063.25h-17.93l-3.08,8.75h-7.33l15.34-42.88h8.13l15.34,42.88h-7.39l-3.08-8.75ZM851.95,1057.52l-6.96-19.9-7.02,19.9h13.98Z" fill="#2f5e5a"/>
      <path d="M878.07,1066.33h14.48v5.67h-21.5v-42.81h7.02v37.15Z" fill="#2f5e5a"/>
      <path d="M943.49,1029.18v42.81h-7.02v-29.32l-13.06,29.32h-4.87l-13.12-29.32v29.32h-7.02v-42.81h7.58l15.03,33.57,14.97-33.57h7.52Z" fill="#2f5e5a"/>
      <path d="M958.77,1070.36c-2.59-1.46-4.62-3.51-6.1-6.16-1.48-2.65-2.22-5.72-2.22-9.21s.76-6.51,2.28-9.18c1.52-2.67,3.59-4.72,6.22-6.16,2.63-1.44,5.57-2.16,8.81-2.16s6.18.72,8.81,2.16c2.63,1.44,4.7,3.49,6.22,6.16,1.52,2.67,2.28,5.73,2.28,9.18s-.78,6.51-2.34,9.18c-1.56,2.67-3.69,4.73-6.38,6.19-2.69,1.46-5.66,2.19-8.9,2.19s-6.1-.73-8.69-2.19ZM972.54,1065.16c1.58-.86,2.86-2.16,3.85-3.88.99-1.73,1.48-3.82,1.48-6.28s-.47-4.55-1.42-6.25c-.95-1.7-2.2-2.99-3.76-3.85-1.56-.86-3.25-1.29-5.05-1.29s-3.48.43-5.02,1.29-2.76,2.15-3.67,3.85c-.9,1.71-1.35,3.79-1.35,6.25,0,3.66.93,6.48,2.8,8.47,1.87,1.99,4.22,2.99,7.05,2.99,1.81,0,3.5-.43,5.08-1.29Z" fill="#2f5e5a"/>
      <path d="M1022.78,1038.05v33.94h-7.02v-4c-1.11,1.4-2.56,2.49-4.34,3.3-1.79.8-3.69,1.2-5.7,1.2-2.67,0-5.06-.55-7.18-1.66-2.12-1.11-3.78-2.75-4.99-4.93-1.21-2.18-1.82-4.81-1.82-7.89v-19.96h6.96v18.91c0,3.04.76,5.37,2.28,6.99,1.52,1.62,3.59,2.43,6.22,2.43s4.71-.81,6.25-2.43c1.54-1.62,2.31-3.95,2.31-6.99v-18.91h7.02Z" fill="#2f5e5a"/>
      <path d="M1037.16,1071.1c-2.12-.96-3.79-2.28-5.02-3.94-1.23-1.66-1.89-3.52-1.97-5.58h7.27c.12,1.44.81,2.64,2.06,3.6,1.25.97,2.82,1.45,4.71,1.45s3.5-.38,4.59-1.14c1.09-.76,1.63-1.73,1.63-2.93,0-1.27-.61-2.22-1.82-2.83-1.21-.62-3.13-1.29-5.76-2.03-2.55-.7-4.62-1.38-6.22-2.03-1.6-.66-2.99-1.66-4.16-3.02-1.17-1.36-1.76-3.14-1.76-5.36,0-1.81.53-3.46,1.6-4.96,1.07-1.5,2.6-2.68,4.59-3.54s4.28-1.29,6.87-1.29c3.86,0,6.97.98,9.33,2.93,2.36,1.95,3.62,4.61,3.79,7.98h-7.02c-.12-1.52-.74-2.73-1.85-3.63-1.11-.9-2.61-1.36-4.5-1.36s-3.27.35-4.25,1.05c-.99.7-1.48,1.62-1.48,2.77,0,.9.33,1.66.99,2.28.66.62,1.46,1.1,2.4,1.45.94.35,2.34.79,4.19,1.33,2.46.66,4.49,1.32,6.07,2,1.58.68,2.95,1.67,4.1,2.99,1.15,1.32,1.75,3.06,1.79,5.24,0,1.93-.53,3.66-1.6,5.17-1.07,1.52-2.58,2.71-4.53,3.57-1.95.86-4.24,1.29-6.87,1.29s-5.06-.48-7.18-1.45Z" fill="#2f5e5a"/>
      <path d="M1070.06,1071.1c-2.12-.96-3.79-2.28-5.02-3.94-1.23-1.66-1.89-3.52-1.97-5.58h7.27c.12,1.44.81,2.64,2.06,3.6,1.25.97,2.82,1.45,4.71,1.45s3.5-.38,4.59-1.14c1.09-.76,1.63-1.73,1.63-2.93,0-1.27-.61-2.22-1.82-2.83-1.21-.62-3.13-1.29-5.76-2.03-2.55-.7-4.62-1.38-6.22-2.03-1.6-.66-2.99-1.66-4.16-3.02-1.17-1.36-1.76-3.14-1.76-5.36,0-1.81.53-3.46,1.6-4.96,1.07-1.5,2.6-2.68,4.59-3.54s4.28-1.29,6.87-1.29c3.86,0,6.97.98,9.33,2.93,2.36,1.95,3.62,4.61,3.79,7.98h-7.02c-.12-1.52-.74-2.73-1.85-3.63-1.11-.9-2.61-1.36-4.5-1.36s-3.27.35-4.25,1.05c-.99.7-1.48,1.62-1.48,2.77,0,.9.33,1.66.99,2.28.66.62,1.46,1.1,2.4,1.45.94.35,2.34.79,4.19,1.33,2.46.66,4.49,1.32,6.07,2,1.58.68,2.95,1.67,4.1,2.99,1.15,1.32,1.75,3.06,1.79,5.24,0,1.93-.53,3.66-1.6,5.17-1.07,1.52-2.58,2.71-4.53,3.57-1.95.86-4.24,1.29-6.87,1.29s-5.06-.48-7.18-1.45Z" fill="#2f5e5a"/>
      <path d="M1097.6,1045.81c1.42-2.63,3.35-4.67,5.79-6.13,2.44-1.46,5.14-2.19,8.1-2.19,2.67,0,5,.52,6.99,1.57,1.99,1.05,3.58,2.35,4.77,3.91v-4.93h7.08v33.94h-7.08v-5.05c-1.19,1.6-2.81,2.94-4.87,4-2.05,1.07-4.4,1.6-7.02,1.6-2.92,0-5.59-.75-8.01-2.25-2.42-1.5-4.34-3.59-5.76-6.28-1.42-2.69-2.12-5.74-2.12-9.15s.71-6.43,2.12-9.06ZM1121.81,1048.89c-.97-1.72-2.23-3.04-3.79-3.94-1.56-.9-3.25-1.36-5.05-1.36s-3.49.44-5.05,1.32c-1.56.88-2.82,2.18-3.79,3.88-.97,1.7-1.45,3.73-1.45,6.07s.48,4.4,1.45,6.16c.96,1.77,2.24,3.11,3.82,4.04s3.25,1.39,5.02,1.39,3.49-.45,5.05-1.36c1.56-.9,2.82-2.23,3.79-3.97.96-1.75,1.45-3.79,1.45-6.13s-.48-4.37-1.45-6.1Z" fill="#2f5e5a"/>
      <path d="M1186.58,1041.5c-1.11-2.13-2.65-3.75-4.62-4.84-1.97-1.09-4.25-1.63-6.84-1.63-2.83,0-5.36.64-7.58,1.91-2.22,1.27-3.95,3.08-5.21,5.42-1.25,2.34-1.88,5.05-1.88,8.13s.62,5.8,1.88,8.16c1.25,2.36,2.99,4.18,5.21,5.45,2.22,1.27,4.74,1.91,7.58,1.91,3.82,0,6.92-1.07,9.3-3.2,2.38-2.13,3.84-5.03,4.37-8.69h-16.08v-5.61h23.59v5.48c-.45,3.33-1.63,6.39-3.54,9.18-1.91,2.79-4.39,5.02-7.45,6.68-3.06,1.66-6.46,2.49-10.2,2.49-4.03,0-7.7-.93-11.03-2.8-3.33-1.87-5.97-4.47-7.92-7.79-1.95-3.33-2.93-7.08-2.93-11.27s.98-7.95,2.93-11.27c1.95-3.33,4.6-5.92,7.95-7.79,3.35-1.87,7.01-2.8,11-2.8,4.56,0,8.61,1.12,12.17,3.36,3.55,2.24,6.13,5.41,7.73,9.52h-8.44Z" fill="#2f5e5a"/>
      <path d="M1214.34,1038.95c1.7-.96,3.73-1.45,6.07-1.45v7.27h-1.79c-2.75,0-4.84.7-6.25,2.09-1.42,1.4-2.12,3.82-2.12,7.27v17.87h-7.02v-33.94h7.02v4.93c1.03-1.72,2.39-3.07,4.1-4.04Z" fill="#2f5e5a"/>
      <path d="M1232.91,1070.36c-2.59-1.46-4.62-3.51-6.1-6.16-1.48-2.65-2.22-5.72-2.22-9.21s.76-6.51,2.28-9.18c1.52-2.67,3.59-4.72,6.22-6.16s5.57-2.16,8.81-2.16,6.18.72,8.81,2.16c2.63,1.44,4.7,3.49,6.22,6.16,1.52,2.67,2.28,5.73,2.28,9.18s-.78,6.51-2.34,9.18c-1.56,2.67-3.69,4.73-6.38,6.19-2.69,1.46-5.66,2.19-8.9,2.19s-6.1-.73-8.69-2.19ZM1246.68,1065.16c1.58-.86,2.86-2.16,3.85-3.88.99-1.73,1.48-3.82,1.48-6.28s-.47-4.55-1.42-6.25c-.95-1.7-2.2-2.99-3.76-3.85-1.56-.86-3.25-1.29-5.05-1.29s-3.48.43-5.02,1.29-2.76,2.15-3.67,3.85c-.9,1.71-1.35,3.79-1.35,6.25,0,3.66.93,6.48,2.8,8.47,1.87,1.99,4.22,2.99,7.05,2.99,1.81,0,3.5-.43,5.08-1.29Z" fill="#2f5e5a"/>
      <path d="M1296.92,1038.05v33.94h-7.02v-4c-1.11,1.4-2.56,2.49-4.34,3.3-1.79.8-3.69,1.2-5.7,1.2-2.67,0-5.06-.55-7.18-1.66-2.12-1.11-3.78-2.75-4.99-4.93-1.21-2.18-1.82-4.81-1.82-7.89v-19.96h6.96v18.91c0,3.04.76,5.37,2.28,6.99,1.52,1.62,3.59,2.43,6.22,2.43s4.71-.81,6.25-2.43c1.54-1.62,2.31-3.95,2.31-6.99v-18.91h7.02Z" fill="#2f5e5a"/>
      <path d="M1318.05,1039.1c2.05-1.07,4.37-1.6,6.96-1.6,2.96,0,5.66.73,8.1,2.19,2.44,1.46,4.36,3.5,5.76,6.13,1.4,2.63,2.09,5.65,2.09,9.06s-.7,6.46-2.09,9.15c-1.4,2.69-3.32,4.79-5.76,6.28-2.44,1.5-5.14,2.25-8.1,2.25-2.59,0-4.89-.52-6.9-1.57-2.01-1.05-3.66-2.35-4.93-3.91v21.07h-7.02v-50.08h7.02v4.99c1.19-1.56,2.81-2.87,4.87-3.94ZM1332.37,1048.8c-.97-1.7-2.24-3-3.82-3.88-1.58-.88-3.28-1.32-5.08-1.32s-3.44.45-5.02,1.36-2.85,2.22-3.82,3.94c-.97,1.72-1.45,3.76-1.45,6.1s.48,4.38,1.45,6.13c.96,1.75,2.24,3.07,3.82,3.97s3.25,1.36,5.02,1.36,3.5-.46,5.08-1.39c1.58-.92,2.85-2.27,3.82-4.04.96-1.76,1.45-3.82,1.45-6.16s-.48-4.36-1.45-6.07Z" fill="#2f5e5a"/>
    </g>
  </g>
  <g>
    <g id="_Radial_Repeat_" data-name="&amp;lt;Radial Repeat&amp;gt;">
      <g>
        <path d="M816.49,380.46c-4.22-8.58-8.63-15.71-12.53-21.36-1.76-2.54-4.65-6.71-8.93-11.76-5.27-6.23-10.56-11.35-15.39-15.49-.83-.71-.47-1.98.57-2.02,6.72-.25,14.87.04,24.06,1.59,12.67,2.13,23.27,5.98,31.27,9.62.65.29,1.1-.53.54-.98-7.11-5.75-13.18-8.94-17.3-10.75-4.6-2.02-10.72-4.08-17.27-6.28-1.23-.41-3.17-1.04-5.65-1.74-.2-.06-.39-.11-.59-.17-1.15-.32-1.22-1.93-.09-2.12,1.35-.23,2.71-.44,4.07-.64,5.72-.81,11.49-1.24,17.32-1.28,30.85-.27,62.72,10.06,89.65,31.06,4.43,3.46,7.1,5.81,8.5,7.12,5.64,5.29,9.77,10.43,12.66,14.48.51.72.04,1.63-.81,1.6-13.76-.44-23.93,1.71-30.67,3.74-11.93,3.6-18.4,8.44-34.58,11.09-4.15.68-8.92,1.43-15.33,1.26-12.71-.34-23.06-4.07-29.49-6.97Z" fill="#2f5e5a"/>
        <path d="M730.01,578.19c-.1.34-.55.41-.8.12-1.38-1.63-2.72-3.28-4.02-4.95-8.17-10.45-15.04-21.54-20.6-33.04-2.1-4.34-4.01-8.74-5.73-13.18,0,0-4.32-11.14-7.08-22.71-7.29-30.58-3.16-60.56-3.16-60.56,2.81-20.44,9.03-35.56,12.83-43.62,7.33-15.54,15.45-25.51,23.7-35.65,9.93-12.21,19.95-22.07,28.99-29.9.89-.77,2.37-.23,2.68.98,3.78,14.63,7.32,34.34,7.05,57.37-.22,18.94-2.95,35.06-6.13,47.74-.3,1.2,1.41,2.02,2.04.97,6.64-11.02,14.79-28.33,17.66-51.32,2.9-23.19-.74-42.83-4.07-55.14-.19-.72.65-1.16,1.2-.64.69.65,1.39,1.31,2.08,1.96h0c5.79,5.69,13.72,14.25,21.57,25.75,5.86,8.59,10.59,15.51,14.04,25.76,4.93,14.64,4.08,27.25,3.36,35.08,0,0-3.74,40.57-35.94,72.7-3.95,3.94-5.15,5.25-7.58,7.87-1.26,1.36-2.65,2.9-4.24,4.73-2.11,2.42-8.67,10.04-14.7,19.29-.63.97-1.27,1.94-1.88,2.93-2.66,4.19-5.13,8.47-7.41,12.83-4.53,8.64-8.33,17.58-11.42,26.73-.88,2.61-1.7,5.25-2.46,7.9Z" fill="#2f5e5a"/>
      </g>
    </g>
    <g id="_Radial_Repeat_-2" data-name="&amp;lt;Radial Repeat&amp;gt;">
      <g>
        <path d="M598.1,419.04c8.58-4.22,15.71-8.63,21.36-12.53,2.54-1.76,6.71-4.65,11.76-8.93,6.23-5.27,11.35-10.56,15.49-15.39.71-.83,1.98-.47,2.02.57.25,6.72-.04,14.87-1.59,24.06-2.13,12.67-5.98,23.27-9.62,31.27-.29.65.53,1.1.98.54,5.75-7.11,8.94-13.18,10.75-17.3,2.02-4.6,4.08-10.72,6.28-17.27.41-1.23,1.04-3.17,1.74-5.65.06-.2.11-.39.17-.59.32-1.15,1.93-1.22,2.12-.09.23,1.35.44,2.71.64,4.07.81,5.72,1.24,11.49,1.28,17.32.27,30.85-10.06,62.72-31.06,89.65-3.46,4.43-5.81,7.1-7.12,8.5-5.29,5.64-10.43,9.77-14.48,12.66-.72.51-1.63.04-1.6-.81.44-13.76-1.71-23.93-3.74-30.67-3.6-11.93-8.44-18.4-11.09-34.58-.68-4.15-1.43-8.92-1.26-15.33.34-12.71,4.07-23.06,6.97-29.49Z" fill="#2f5e5a"/>
        <path d="M400.37,332.56c-.34-.1-.41-.55-.12-.8,1.63-1.38,3.28-2.72,4.95-4.02,10.45-8.17,21.54-15.04,33.04-20.6,4.34-2.1,8.74-4.01,13.18-5.73,0,0,11.14-4.32,22.71-7.08,30.58-7.29,60.56-3.16,60.56-3.16,20.44,2.81,35.56,9.03,43.62,12.83,15.54,7.33,25.51,15.45,35.65,23.7,12.21,9.93,22.07,19.95,29.9,28.99.77.89.23,2.37-.98,2.68-14.63,3.78-34.34,7.32-57.37,7.05-18.94-.22-35.06-2.95-47.74-6.13-1.2-.3-2.02,1.41-.97,2.04,11.02,6.64,28.33,14.79,51.32,17.66,23.19,2.9,42.83-.74,55.14-4.07.72-.19,1.16.65.64,1.2-.65.69-1.31,1.39-1.96,2.08h0c-5.68,5.8-14.24,13.72-25.74,21.58-8.59,5.86-15.51,10.59-25.76,14.04-14.64,4.93-27.25,4.08-35.08,3.36,0,0-40.57-3.74-72.7-35.94-3.94-3.95-5.25-5.15-7.87-7.58-1.36-1.26-2.9-2.65-4.73-4.24-2.42-2.11-10.04-8.67-19.29-14.7-.97-.63-1.94-1.27-2.93-1.88-4.19-2.66-8.47-5.13-12.83-7.41-8.64-4.53-17.58-8.33-26.73-11.42-2.61-.88-5.25-1.7-7.9-2.46Z" fill="#2f5e5a"/>
      </g>
    </g>
    <g id="_Radial_Repeat_-3" data-name="&amp;lt;Radial Repeat&amp;gt;">
      <g>
        <path d="M559.52,200.64c4.22,8.58,8.63,15.71,12.53,21.36,1.76,2.54,4.65,6.71,8.93,11.76,5.27,6.23,10.56,11.35,15.39,15.49.83.71.47,1.98-.57,2.02-6.72.25-14.87-.04-24.06-1.59-12.67-2.13-23.27-5.98-31.27-9.62-.65-.29-1.1.53-.54.98,7.11,5.75,13.18,8.94,17.3,10.75,4.6,2.02,10.72,4.08,17.27,6.28,1.23.41,3.17,1.04,5.65,1.74.2.06.39.11.59.17,1.15.32,1.22,1.93.09,2.12-1.35.23-2.71.44-4.07.64-5.72.81-11.49,1.24-17.32,1.28-30.85.27-62.72-10.06-89.65-31.06-4.43-3.46-7.1-5.81-8.5-7.12-5.64-5.29-9.77-10.43-12.66-14.48-.51-.72-.04-1.63.81-1.6,13.76.44,23.93-1.71,30.67-3.74,11.93-3.6,18.4-8.44,34.58-11.09,4.15-.68,8.92-1.43,15.33-1.26,12.71.34,23.06,4.07,29.49,6.97Z" fill="#2f5e5a"/>
        <path d="M646,2.91c.1-.34.55-.41.8-.12,1.38,1.63,2.72,3.28,4.02,4.95,8.17,10.45,15.04,21.54,20.6,33.04,2.1,4.34,4.01,8.74,5.73,13.18,0,0,4.32,11.14,7.08,22.71,7.29,30.58,3.16,60.56,3.16,60.56-2.81,20.44-9.03,35.56-12.83,43.62-7.33,15.54-15.45,25.51-23.7,35.65-9.93,12.21-19.95,22.07-28.99,29.9-.89.77-2.37.23-2.68-.98-3.78-14.63-7.32-34.34-7.05-57.37.22-18.94,2.95-35.06,6.13-47.74.3-1.2-1.41-2.02-2.04-.97-6.64,11.02-14.79,28.33-17.66,51.32-2.9,23.19.74,42.83,4.07,55.14.19.72-.65,1.16-1.2.64-.69-.65-1.39-1.31-2.08-1.96h0c-5.79-5.69-13.72-14.25-21.57-25.75-5.86-8.59-10.59-15.51-14.04-25.76-4.93-14.64-4.08-27.25-3.36-35.08,0,0,3.74-40.57,35.94-72.7,3.95-3.94,5.15-5.25,7.58-7.87,1.26-1.36,2.65-2.9,4.24-4.73,2.11-2.42,8.67-10.04,14.7-19.29.63-.97,1.27-1.94,1.88-2.93,2.66-4.19,5.13-8.47,7.41-12.83,4.53-8.64,8.33-17.58,11.42-26.73.88-2.61,1.7-5.25,2.46-7.9Z" fill="#2f5e5a"/>
      </g>
    </g>
    <g id="_Radial_Repeat_-4" data-name="&amp;lt;Radial Repeat&amp;gt;">
      <g>
        <path d="M777.92,162.07c-8.58,4.22-15.71,8.63-21.36,12.53-2.54,1.76-6.71,4.65-11.76,8.93-6.23,5.27-11.35,10.56-15.49,15.39-.71.83-1.98.47-2.02-.57-.25-6.72.04-14.87,1.59-24.06,2.13-12.67,5.98-23.27,9.62-31.27.29-.65-.53-1.1-.98-.54-5.75,7.11-8.94,13.18-10.75,17.3-2.02,4.6-4.08,10.72-6.28,17.27-.41,1.23-1.04,3.17-1.74,5.65-.06.2-.11.39-.17.59-.32,1.15-1.93,1.22-2.12.09-.23-1.35-.44-2.71-.64-4.07-.81-5.72-1.24-11.49-1.28-17.32-.27-30.85,10.06-62.72,31.06-89.65,3.46-4.43,5.81-7.1,7.12-8.5,5.29-5.64,10.43-9.77,14.48-12.66.72-.51,1.63-.04,1.6.81-.44,13.76,1.71,23.93,3.74,30.67,3.6,11.93,8.44,18.4,11.09,34.58.68,4.15,1.43,8.92,1.26,15.33-.34,12.71-4.07,23.06-6.97,29.49Z" fill="#2f5e5a"/>
        <path d="M975.64,248.54c.34.1.41.55.12.8-1.63,1.38-3.28,2.72-4.95,4.02-10.45,8.17-21.54,15.04-33.04,20.6-4.34,2.1-8.74,4.01-13.18,5.73,0,0-11.14,4.32-22.71,7.08-30.58,7.29-60.56,3.16-60.56,3.16-20.44-2.81-35.56-9.03-43.62-12.83-15.54-7.33-25.51-15.45-35.65-23.7-12.21-9.93-22.07-19.95-29.9-28.99-.77-.89-.23-2.37.98-2.68,14.63-3.78,34.34-7.32,57.37-7.05,18.94.22,35.06,2.95,47.74,6.13,1.2.3,2.02-1.41.97-2.04-11.02-6.64-28.33-14.79-51.32-17.66-23.19-2.9-42.83.74-55.14,4.07-.72.19-1.16-.65-.64-1.2.65-.69,1.31-1.39,1.96-2.08h0c5.68-5.8,14.24-13.72,25.74-21.58,8.59-5.86,15.51-10.59,25.76-14.04,14.64-4.93,27.25-4.08,35.08-3.36,0,0,40.57,3.74,72.7,35.94,3.94,3.95,5.25,5.15,7.87,7.58,1.36,1.26,2.9,2.65,4.73,4.24,2.42,2.11,10.04,8.67,19.29,14.7.97.63,1.94,1.27,2.93,1.88,4.19,2.66,8.47,5.13,12.83,7.41,8.64,4.53,17.58,8.33,26.73,11.42,2.61.88,5.25,1.7,7.9,2.46Z" fill="#2f5e5a"/>
      </g>
    </g>
  </g>
  <g>
    <path d="M434.03,675.72c-.92,5.5-1.22,10.34-1.24,14.32-.01,1.79-.03,4.72.35,8.51.47,4.68,1.34,8.82,2.33,12.34.17.6-.47,1.11-1.02.81-3.53-1.98-7.61-4.66-11.76-8.27-5.73-4.99-9.78-10.17-12.57-14.43-.23-.35-.75-.09-.63.31,1.58,5.02,3.55,8.46,5.01,10.63,1.63,2.42,4.03,5.33,6.6,8.44.48.59,1.25,1.49,2.27,2.61.08.09.16.18.24.27.48.51-.07,1.32-.72,1.06-.78-.31-1.55-.63-2.31-.96-3.22-1.39-6.34-2.98-9.34-4.78-15.91-9.48-28.53-24.45-34.79-43.08-1.03-3.07-1.55-5.04-1.8-6.12-.99-4.34-1.26-8.13-1.29-11,0-.51.57-.81.99-.53,6.89,4.51,12.88,6.63,17.06,7.74,7.41,1.97,12.46,1.62,21.7,5.38,2.37.96,5.08,2.08,8.31,4.16,6.39,4.13,10.36,9.17,12.61,12.59Z" fill="#2f5e5a"/>
    <path d="M549.33,606.33c.17-.14.43-.03.45.19.12,1.22.21,2.45.28,3.67.44,7.64-.03,15.19-1.3,22.52-.48,2.77-1.08,5.51-1.8,8.21,0,0-1.79,6.78-4.53,13.27-7.24,17.17-20.12,30.5-20.12,30.5-8.78,9.08-17.4,14.51-22.24,17.25-9.33,5.29-17.08,7.62-24.94,9.99-9.47,2.85-18.15,4.53-25.59,5.54-.73.1-1.29-.63-1.02-1.31,3.32-8.31,8.58-19.02,16.98-30.15,6.91-9.16,14.1-16.17,20.28-21.36.59-.49,0-1.42-.69-1.11-7.36,3.3-17.75,9.19-27.48,19.5-9.81,10.4-15,21.1-17.71,28.14-.16.41-.75.36-.84-.06-.12-.54-.24-1.07-.36-1.61h0c-.93-4.58-1.92-11.22-1.81-19.28.03-2.4.31-10.53,2.05-16.93,7.13-26.27,43.58-40.05,55-42.29,1.02-.2,5.27-.98,10.97-2.53,7.38-2.01,12.63-4.08,14.46-4.82,2.28-.92,5.99-2.5,10.42-4.79,9.09-4.69,12.98-7.7,15.45-9.47,1.39-1,2.76-2.03,4.1-3.08Z" fill="#2f5e5a"/>
  </g>
</svg>