<?xml version="1.0" encoding="UTF-8"?>
<svg id="Layer_1" data-name="Layer 1" xmlns="http://www.w3.org/2000/svg" viewBox="0 0 2483.05 837.09">
  <g id="_1st_V" data-name="1st_V">
    <g>
      <path d="M1789.55,407.89c-9.14-7.94-19.99-14.01-32.61-18.19-12.6-4.17-26.66-6.25-42.2-6.25s-29.29,2.08-41.89,6.25c-12.62,4.18-23.47,10.24-32.58,18.19-9.12,7.96-16.1,17.56-20.96,28.81-4.85,11.26-7.27,23.96-7.27,38.13s2.42,26.52,7.27,37.68c4.85,11.17,11.84,20.71,20.96,28.67,9.12,7.96,19.96,14.02,32.58,18.19,12.6,4.17,26.57,6.25,41.89,6.25s29.6-2.08,42.2-6.25c12.62-4.17,23.47-10.23,32.61-18.19,9.09-7.96,16.13-17.5,21.08-28.67,4.95-11.15,7.44-23.72,7.44-37.68s-2.49-26.87-7.44-38.13c-4.95-11.25-11.98-20.85-21.08-28.81ZM1766.1,517.01c-4.76,11.84-11.53,21-20.37,27.5-8.83,6.5-19.16,9.74-31,9.74s-21.81-3.24-30.55-9.74c-8.71-6.5-15.51-15.66-20.37-27.5-4.85-11.83-7.27-25.89-7.27-42.19s2.42-30.7,7.27-42.64c4.85-11.92,11.65-21.13,20.37-27.64,8.74-6.5,18.92-9.76,30.55-9.76s22.16,3.26,31,9.76c8.83,6.5,15.61,15.71,20.37,27.64,4.76,11.93,7.13,26.14,7.13,42.64s-2.37,30.36-7.13,42.19Z" fill="#2f5e5a"/>
      <path d="M2005.32,407.89c-9.14-7.94-19.99-14.01-32.61-18.19-12.6-4.17-26.66-6.25-42.2-6.25s-29.29,2.08-41.89,6.25c-12.62,4.18-23.47,10.24-32.58,18.19-9.12,7.96-16.1,17.56-20.96,28.81-4.85,11.26-7.27,23.96-7.27,38.13s2.42,26.52,7.27,37.68c4.85,11.17,11.84,20.71,20.96,28.67,9.12,7.96,19.96,14.02,32.58,18.19,12.6,4.17,26.57,6.25,41.89,6.25s29.6-2.08,42.2-6.25c12.62-4.17,23.47-10.23,32.61-18.19,9.09-7.96,16.13-17.5,21.08-28.67,4.95-11.15,7.44-23.72,7.44-37.68s-2.49-26.87-7.44-38.13c-4.95-11.25-11.98-20.85-21.08-28.81ZM1981.88,517.01c-4.76,11.84-11.53,21-20.37,27.5-8.83,6.5-19.16,9.74-31,9.74s-21.81-3.24-30.55-9.74c-8.71-6.5-15.51-15.66-20.37-27.5-4.85-11.83-7.27-25.89-7.27-42.19s2.42-30.7,7.27-42.64c4.85-11.92,11.65-21.13,20.37-27.64,8.74-6.5,18.92-9.76,30.55-9.76s22.16,3.26,31,9.76c8.83,6.5,15.61,15.71,20.37,27.64,4.76,11.93,7.13,26.14,7.13,42.64s-2.37,30.36-7.13,42.19Z" fill="#2f5e5a"/>
      <path d="M2182.19,386.22c-4.26.49-8.24.73-11.93.73h-107.37c-3.5,0-7.32-.25-11.51-.73-4.17-.47-7.96-1.11-11.34-1.88-3.39-.78-5.97-1.36-7.7-1.75v45.98h3.2v-2.62c0-8.34,2.27-14.93,6.84-19.79,4.55-4.85,11.08-7.38,19.63-7.57h33.46v144.91c-.19,4.26-1.8,7.9-4.81,10.9-3.01,3.02-6.63,4.51-10.89,4.51h-3.22v2.91h80.32v-2.91h-3.2c-4.48,0-8.26-1.49-11.37-4.51-3.1-3.01-4.64-6.64-4.64-10.9v-144.91h33.74c8.34.19,14.9,2.71,19.65,7.57,4.74,4.85,7.03,11.45,6.84,19.79v2.62h3.2v-45.98c-1.37.58-3.79,1.22-7.29,1.89-3.48.69-7.36,1.27-11.63,1.74Z" fill="#2f5e5a"/>
      <path d="M2326.2,486.17c-4.45-7.36-10.56-12.99-18.33-16.87l-45.68-28.23c-3.69-2.13-7.03-4.26-10.04-6.41-3.01-2.13-5.33-4.61-6.99-7.41-1.63-2.82-2.27-5.97-1.89-9.46.4-6.78,3.46-12.22,9.16-16.29,5.73-4.07,13.26-6.11,22.57-6.11,11.63,0,20.55,2.62,26.76,7.85,6.2,5.23,9.31,12.33,9.31,21.24h2.63l3.79-35.5s-.12-.04-.17-.05l.17-2.86h-16.01c-2.21-.26-4.52-.5-6.98-.72-5.42-.49-10.92-.92-16.43-1.31-5.54-.39-10.23-.58-14.11-.58-9.71,0-18.33,1.74-25.91,5.23-7.55,3.49-13.62,8.54-18.19,15.13-4.55,6.6-7.32,14.55-8.29,23.86-1.16,9.9.43,19.02,4.81,27.36,4.36,8.34,11.39,15.03,21.1,20.07l41.3,26.19c7.77,4.07,13.36,8.21,16.74,12.37,3.39,4.17,5.09,8.87,5.09,14.11,0,6.97-2.82,13.1-8.43,18.33-5.64,5.23-14.07,7.85-25.31,7.85-10.3,0-19.11-2.18-26.5-6.55-7.36-4.36-12.93-10.23-16.72-17.59-3.79-7.38-5.38-15.43-4.81-24.15h-2.32c-2.32,3.68-4.26,8.29-5.83,13.82-1.56,5.53-2.42,11.06-2.63,16.59-.19,5.53.5,10.23,2.06,14.11,2.7,2.91,6.63,5.53,11.77,7.86,5.14,2.32,11.3,4.17,18.47,5.52,7.18,1.36,14.94,2.04,23.3,2.04,13.57,0,25.34-2.08,35.33-6.25,9.99-4.17,17.86-10.23,23.59-18.19,5.71-7.96,8.88-17.36,9.45-28.23.59-10.48-1.35-19.39-5.83-26.77Z" fill="#2f5e5a"/>
      <path d="M1633.98,574.78c-11.37-10.38-22.38-22.46-33.03-36.23-8.55-10.48-16.2-20.18-22.99-29.1-6.8-8.92-13.66-16.87-20.65-23.86-6.99-6.99-14.85-12.8-23.59-17.45,10.09.58,19.37-1.41,27.8-5.97,8.43-4.56,15.23-11.15,20.37-19.78,5.14-8.63,7.72-18.67,7.72-30.12,0-10.28-2.25-18.92-6.7-25.89-4.45-6.99-10.32-12.52-17.59-16.59-7.29-4.07-15.27-7.03-24.01-8.88-8.74-1.84-17.45-2.76-26.19-2.76h-99.81v2.91h3.79c5.04,0,9.35,1.79,12.95,5.38,3.58,3.6,5.47,7.91,5.66,12.95v161.2c-.19,5.23-2.13,9.6-5.8,13.1-3.69,3.49-7.96,5.23-12.81,5.23h-3.79v2.91h88.16v-2.91h-3.48c-5.04,0-9.4-1.79-13.1-5.38-3.69-3.59-5.52-7.91-5.52-12.95v-169.65h22.09c6.99,0,13.45,1.6,19.37,4.81,5.9,3.2,10.66,7.8,14.26,13.82,3.58,6.01,5.56,13.39,5.97,22.12.19,3.3.14,6.11-.17,8.43-.28,2.33-.62,4.18-1.02,5.53-1.16,6.61-3.34,12.14-6.54,16.59-3.2,4.46-6.89,7.91-11.06,10.34-4.17,2.43-8.38,4.17-12.65,5.23-4.29,1.07-8.17,1.6-11.65,1.6h-9.02v2.91c2.72.58,5.38,2.52,8,5.83,2.63,3.29,5.38,7.18,8.29,11.64,2.34,3.1,5.14,7.08,8.45,11.92,3.29,4.85,6.82,10.18,10.61,16.01,3.79,5.81,7.67,11.73,11.65,17.75,3.95,6.01,7.84,11.84,11.63,17.46,3.79,5.62,7.22,10.57,10.32,14.84,8.34,12.61,17.17,23.18,26.5,31.72,9.31,8.52,18.75,15.27,28.37,20.22,9.59,4.95,19.2,8.38,28.8,10.32,9.61,1.94,18.87,2.77,27.8,2.47,8.9-.28,17.36-1.46,25.31-3.49,7.96-2.04,15.01-4.61,21.24-7.71v-2.91c-17.26-.19-32.75-3.24-46.41-9.16-13.69-5.92-26.19-14.07-37.53-24.44Z" fill="#2f5e5a"/>
    </g>
    <g>
      <path d="M1753.62,612.92h-12.22l-2.1,5.96h-5l10.46-29.22h5.54l10.46,29.22h-5.04l-2.1-5.96ZM1752.28,609.02l-4.75-13.56-4.79,13.56h9.53Z" fill="#2f5e5a"/>
      <path d="M1784.34,596.44c1.41-.71,2.99-1.07,4.72-1.07,2.04,0,3.89.49,5.54,1.47,1.65.98,2.95,2.37,3.9,4.18.95,1.8,1.43,3.87,1.43,6.19s-.48,4.4-1.43,6.24c-.95,1.83-2.26,3.26-3.93,4.28-1.67,1.02-3.51,1.53-5.52,1.53-1.79,0-3.38-.35-4.77-1.05s-2.48-1.6-3.3-2.69v3.36h-4.79v-31.07h4.79v11.38c.81-1.12,1.92-2.04,3.34-2.75ZM1794.08,603.07c-.66-1.16-1.53-2.04-2.6-2.64-1.08-.6-2.23-.9-3.46-.9s-2.34.31-3.42.92c-1.08.62-1.95,1.51-2.6,2.69-.66,1.18-.99,2.56-.99,4.16s.33,2.99.99,4.18c.66,1.19,1.53,2.09,2.6,2.71,1.08.62,2.22.92,3.42.92s2.39-.31,3.46-.94c1.08-.63,1.95-1.55,2.6-2.75.66-1.2.99-2.6.99-4.2s-.33-2.97-.99-4.14Z" fill="#2f5e5a"/>
      <path d="M1812.26,596.36c1.16-.66,2.54-.99,4.14-.99v4.96h-1.22c-1.88,0-3.3.48-4.26,1.43-.97.95-1.45,2.6-1.45,4.96v12.18h-4.79v-23.14h4.79v3.36c.7-1.18,1.63-2.09,2.79-2.75Z" fill="#2f5e5a"/>
      <path d="M1820.66,601.04c.97-1.79,2.28-3.18,3.95-4.18,1.67-.99,3.51-1.49,5.52-1.49,1.82,0,3.41.36,4.77,1.07s2.44,1.6,3.25,2.67v-3.36h4.83v23.14h-4.83v-3.44c-.81,1.09-1.92,2-3.32,2.73-1.4.73-3,1.09-4.79,1.09-1.99,0-3.81-.51-5.46-1.53-1.65-1.02-2.96-2.45-3.93-4.28-.97-1.83-1.45-3.91-1.45-6.24s.48-4.38,1.45-6.17ZM1837.16,603.14c-.66-1.18-1.52-2.07-2.58-2.69-1.06-.62-2.21-.92-3.44-.92s-2.38.3-3.44.9-1.92,1.48-2.58,2.64c-.66,1.16-.99,2.54-.99,4.14s.33,3,.99,4.2c.66,1.2,1.53,2.12,2.6,2.75,1.08.63,2.22.94,3.42.94s2.38-.31,3.44-.92c1.06-.62,1.92-1.52,2.58-2.71.66-1.19.99-2.58.99-4.18s-.33-2.98-.99-4.16Z" fill="#2f5e5a"/>
      <path d="M1865.84,596.5c1.44.76,2.57,1.88,3.38,3.36.81,1.48,1.22,3.28,1.22,5.38v13.65h-4.75v-12.93c0-2.07-.52-3.66-1.55-4.77-1.04-1.11-2.45-1.66-4.24-1.66s-3.21.55-4.26,1.66-1.57,2.69-1.57,4.77v12.93h-4.79v-23.14h4.79v2.65c.78-.95,1.78-1.69,3-2.23,1.22-.53,2.51-.8,3.88-.8,1.82,0,3.45.38,4.89,1.13Z" fill="#2f5e5a"/>
      <path d="M1876.38,601.04c.97-1.79,2.28-3.18,3.95-4.18,1.67-.99,3.52-1.49,5.56-1.49,1.51,0,3,.33,4.47.99,1.47.66,2.64,1.53,3.51,2.62v-11.17h4.83v31.07h-4.83v-3.49c-.78,1.12-1.87,2.04-3.25,2.77-1.38.73-2.97,1.09-4.77,1.09-2.02,0-3.86-.51-5.52-1.53-1.67-1.02-2.98-2.45-3.95-4.28-.97-1.83-1.45-3.91-1.45-6.24s.48-4.38,1.45-6.17ZM1892.88,603.14c-.66-1.18-1.52-2.07-2.58-2.69-1.06-.62-2.21-.92-3.44-.92s-2.38.3-3.44.9-1.92,1.48-2.58,2.64c-.66,1.16-.99,2.54-.99,4.14s.33,3,.99,4.2c.66,1.2,1.53,2.12,2.6,2.75,1.08.63,2.22.94,3.42.94s2.38-.31,3.44-.92c1.06-.62,1.92-1.52,2.58-2.71.66-1.19.99-2.58.99-4.18s-.33-2.98-.99-4.16Z" fill="#2f5e5a"/>
      <path d="M1924.04,596.44c1.41-.71,2.99-1.07,4.72-1.07,2.04,0,3.89.49,5.54,1.47,1.65.98,2.95,2.37,3.9,4.18.95,1.8,1.43,3.87,1.43,6.19s-.48,4.4-1.43,6.24c-.95,1.83-2.26,3.26-3.93,4.28-1.67,1.02-3.51,1.53-5.52,1.53-1.79,0-3.38-.35-4.77-1.05s-2.48-1.6-3.3-2.69v3.36h-4.79v-31.07h4.79v11.38c.81-1.12,1.92-2.04,3.34-2.75ZM1933.78,603.07c-.66-1.16-1.53-2.04-2.6-2.64-1.08-.6-2.23-.9-3.46-.9s-2.34.31-3.42.92c-1.08.62-1.95,1.51-2.6,2.69-.66,1.18-.99,2.56-.99,4.16s.33,2.99.99,4.18c.66,1.19,1.53,2.09,2.6,2.71,1.08.62,2.22.92,3.42.92s2.39-.31,3.46-.94c1.08-.63,1.95-1.55,2.6-2.75.66-1.2.99-2.6.99-4.2s-.33-2.97-.99-4.14Z" fill="#2f5e5a"/>
      <path d="M1965.21,595.75l-14.19,34.01h-4.95l4.7-11.25-9.11-22.76h5.33l6.51,17.64,6.76-17.64h4.96Z" fill="#2f5e5a"/>
      <path d="M1997.33,612.92h-12.22l-2.1,5.96h-5l10.46-29.22h5.54l10.46,29.22h-5.04l-2.1-5.96ZM1995.99,609.02l-4.75-13.56-4.79,13.56h9.53Z" fill="#2f5e5a"/>
      <path d="M2013.79,615.02h9.87v3.86h-14.65v-29.18h4.79v25.32Z" fill="#2f5e5a"/>
      <path d="M2058.39,589.7v29.18h-4.79v-19.99l-8.9,19.99h-3.32l-8.94-19.99v19.99h-4.79v-29.18h5.16l10.25,22.88,10.2-22.88h5.12Z" fill="#2f5e5a"/>
      <path d="M2068.8,617.77c-1.76-.99-3.15-2.39-4.16-4.2s-1.51-3.9-1.51-6.28.52-4.44,1.55-6.26c1.04-1.82,2.45-3.22,4.24-4.2,1.79-.98,3.79-1.47,6-1.47s4.21.49,6,1.47c1.79.98,3.21,2.38,4.24,4.2,1.04,1.82,1.55,3.91,1.55,6.26s-.53,4.44-1.59,6.26c-1.06,1.82-2.51,3.23-4.35,4.22-1.83.99-3.86,1.49-6.07,1.49s-4.16-.5-5.92-1.49ZM2078.18,614.22c1.08-.59,1.95-1.47,2.62-2.65.67-1.17,1.01-2.6,1.01-4.28s-.32-3.1-.97-4.26c-.64-1.16-1.5-2.04-2.56-2.62-1.06-.59-2.21-.88-3.44-.88s-2.37.29-3.42.88-1.88,1.46-2.5,2.62c-.62,1.16-.92,2.58-.92,4.26,0,2.49.64,4.42,1.91,5.77,1.27,1.36,2.88,2.04,4.81,2.04,1.23,0,2.39-.29,3.46-.88Z" fill="#2f5e5a"/>
      <path d="M2112.43,595.75v23.14h-4.79v-2.73c-.76.95-1.74,1.7-2.96,2.25-1.22.54-2.51.82-3.88.82-1.82,0-3.45-.38-4.89-1.13-1.44-.76-2.58-1.88-3.4-3.36-.83-1.48-1.24-3.28-1.24-5.37v-13.61h4.75v12.89c0,2.07.52,3.66,1.55,4.77,1.04,1.11,2.45,1.66,4.24,1.66s3.21-.55,4.26-1.66c1.05-1.11,1.58-2.69,1.58-4.77v-12.89h4.79Z" fill="#2f5e5a"/>
      <path d="M2122.23,618.27c-1.44-.66-2.58-1.55-3.42-2.69s-1.29-2.4-1.34-3.8h4.96c.08.98.55,1.8,1.41,2.46.85.66,1.92.99,3.21.99s2.39-.26,3.13-.78c.74-.52,1.11-1.18,1.11-2,0-.87-.41-1.51-1.24-1.93-.83-.42-2.14-.88-3.93-1.39-1.74-.48-3.15-.94-4.24-1.39s-2.04-1.13-2.83-2.06-1.2-2.14-1.2-3.65c0-1.23.36-2.36,1.09-3.38.73-1.02,1.77-1.83,3.13-2.42,1.36-.59,2.92-.88,4.68-.88,2.63,0,4.75.67,6.36,2,1.61,1.33,2.47,3.14,2.58,5.44h-4.79c-.08-1.04-.5-1.86-1.26-2.48-.76-.62-1.78-.92-3.07-.92s-2.23.24-2.9.71c-.67.48-1.01,1.11-1.01,1.89,0,.62.22,1.13.67,1.55.45.42.99.75,1.64.99.64.24,1.6.54,2.86.9,1.68.45,3.06.9,4.14,1.36,1.08.46,2.01,1.14,2.79,2.04.78.9,1.19,2.08,1.22,3.57,0,1.32-.36,2.49-1.09,3.53-.73,1.04-1.76,1.85-3.09,2.44-1.33.59-2.89.88-4.68.88s-3.45-.33-4.89-.99Z" fill="#2f5e5a"/>
      <path d="M2144.65,618.27c-1.44-.66-2.58-1.55-3.42-2.69s-1.29-2.4-1.34-3.8h4.96c.08.98.55,1.8,1.41,2.46.85.66,1.92.99,3.21.99s2.39-.26,3.13-.78c.74-.52,1.11-1.18,1.11-2,0-.87-.41-1.51-1.24-1.93-.83-.42-2.14-.88-3.93-1.39-1.74-.48-3.15-.94-4.24-1.39s-2.04-1.13-2.83-2.06-1.2-2.14-1.2-3.65c0-1.23.36-2.36,1.09-3.38.73-1.02,1.77-1.83,3.13-2.42,1.36-.59,2.92-.88,4.68-.88,2.63,0,4.75.67,6.36,2,1.61,1.33,2.47,3.14,2.58,5.44h-4.79c-.08-1.04-.5-1.86-1.26-2.48-.76-.62-1.78-.92-3.07-.92s-2.23.24-2.9.71c-.67.48-1.01,1.11-1.01,1.89,0,.62.22,1.13.67,1.55.45.42.99.75,1.64.99.64.24,1.6.54,2.86.9,1.68.45,3.06.9,4.14,1.36,1.08.46,2.01,1.14,2.79,2.04.78.9,1.19,2.08,1.22,3.57,0,1.32-.36,2.49-1.09,3.53-.73,1.04-1.76,1.85-3.09,2.44-1.33.59-2.89.88-4.68.88s-3.45-.33-4.89-.99Z" fill="#2f5e5a"/>
      <path d="M2163.42,601.04c.97-1.79,2.28-3.18,3.95-4.18,1.67-.99,3.51-1.49,5.52-1.49,1.82,0,3.41.36,4.77,1.07s2.44,1.6,3.25,2.67v-3.36h4.83v23.14h-4.83v-3.44c-.81,1.09-1.92,2-3.32,2.73-1.4.73-3,1.09-4.79,1.09-1.99,0-3.81-.51-5.46-1.53-1.65-1.02-2.96-2.45-3.93-4.28-.97-1.83-1.45-3.91-1.45-6.24s.48-4.38,1.45-6.17ZM2179.92,603.14c-.66-1.18-1.52-2.07-2.58-2.69-1.06-.62-2.21-.92-3.44-.92s-2.38.3-3.44.9-1.92,1.48-2.58,2.64c-.66,1.16-.99,2.54-.99,4.14s.33,3,.99,4.2c.66,1.2,1.53,2.12,2.6,2.75,1.08.63,2.22.94,3.42.94s2.38-.31,3.44-.92c1.06-.62,1.92-1.52,2.58-2.71.66-1.19.99-2.58.99-4.18s-.33-2.98-.99-4.16Z" fill="#2f5e5a"/>
      <path d="M2224.08,598.1c-.76-1.46-1.81-2.55-3.15-3.3-1.34-.74-2.9-1.11-4.66-1.11-1.93,0-3.65.43-5.17,1.3-1.51.87-2.69,2.1-3.55,3.7-.85,1.6-1.28,3.44-1.28,5.54s.43,3.95,1.28,5.56c.85,1.61,2.04,2.85,3.55,3.72,1.51.87,3.23,1.3,5.17,1.3,2.6,0,4.72-.73,6.34-2.18,1.62-1.46,2.62-3.43,2.98-5.92h-10.96v-3.82h16.08v3.74c-.31,2.27-1.11,4.35-2.41,6.26-1.3,1.9-3,3.42-5.08,4.56-2.09,1.13-4.4,1.7-6.95,1.7-2.74,0-5.25-.64-7.52-1.91-2.27-1.27-4.07-3.04-5.4-5.31-1.33-2.27-1.99-4.83-1.99-7.68s.66-5.42,1.99-7.68c1.33-2.27,3.13-4.04,5.42-5.31,2.28-1.27,4.78-1.91,7.5-1.91,3.11,0,5.87.76,8.29,2.29,2.42,1.53,4.18,3.69,5.27,6.49h-5.75Z" fill="#2f5e5a"/>
      <path d="M2242.99,596.36c1.16-.66,2.54-.99,4.14-.99v4.96h-1.22c-1.88,0-3.3.48-4.26,1.43-.97.95-1.45,2.6-1.45,4.96v12.18h-4.79v-23.14h4.79v3.36c.7-1.18,1.63-2.09,2.79-2.75Z" fill="#2f5e5a"/>
      <path d="M2255.65,617.77c-1.76-.99-3.15-2.39-4.16-4.2s-1.51-3.9-1.51-6.28.52-4.44,1.55-6.26c1.04-1.82,2.45-3.22,4.24-4.2,1.79-.98,3.79-1.47,6-1.47s4.21.49,6,1.47c1.79.98,3.21,2.38,4.24,4.2,1.04,1.82,1.55,3.91,1.55,6.26s-.53,4.44-1.59,6.26c-1.06,1.82-2.51,3.23-4.35,4.22-1.83.99-3.86,1.49-6.07,1.49s-4.16-.5-5.92-1.49ZM2265.04,614.22c1.08-.59,1.95-1.47,2.62-2.65.67-1.17,1.01-2.6,1.01-4.28s-.32-3.1-.97-4.26c-.64-1.16-1.5-2.04-2.56-2.62-1.06-.59-2.21-.88-3.44-.88s-2.37.29-3.42.88-1.88,1.46-2.5,2.62c-.62,1.16-.92,2.58-.92,4.26,0,2.49.64,4.42,1.91,5.77,1.27,1.36,2.88,2.04,4.81,2.04,1.23,0,2.39-.29,3.46-.88Z" fill="#2f5e5a"/>
      <path d="M2299.28,595.75v23.14h-4.79v-2.73c-.76.95-1.74,1.7-2.96,2.25-1.22.54-2.51.82-3.88.82-1.82,0-3.45-.38-4.89-1.13-1.44-.76-2.58-1.88-3.4-3.36-.83-1.48-1.24-3.28-1.24-5.37v-13.61h4.75v12.89c0,2.07.52,3.66,1.55,4.77,1.04,1.11,2.45,1.66,4.24,1.66s3.21-.55,4.26-1.66c1.05-1.11,1.58-2.69,1.58-4.77v-12.89h4.79Z" fill="#2f5e5a"/>
      <path d="M2313.68,596.46c1.4-.73,2.98-1.09,4.75-1.09,2.02,0,3.86.5,5.52,1.49,1.67.99,2.97,2.39,3.93,4.18.95,1.79,1.43,3.85,1.43,6.17s-.48,4.4-1.43,6.24c-.95,1.83-2.26,3.26-3.93,4.28-1.67,1.02-3.51,1.53-5.52,1.53-1.76,0-3.33-.36-4.7-1.07-1.37-.71-2.49-1.6-3.36-2.67v14.36h-4.79v-34.14h4.79v3.4c.81-1.06,1.92-1.96,3.32-2.69ZM2323.44,603.07c-.66-1.16-1.53-2.04-2.6-2.64-1.08-.6-2.23-.9-3.46-.9s-2.34.31-3.42.92c-1.08.62-1.95,1.51-2.6,2.69-.66,1.18-.99,2.56-.99,4.16s.33,2.99.99,4.18c.66,1.19,1.53,2.09,2.6,2.71,1.08.62,2.22.92,3.42.92s2.39-.31,3.46-.94c1.08-.63,1.95-1.55,2.6-2.75.66-1.2.99-2.6.99-4.2s-.33-2.97-.99-4.14Z" fill="#2f5e5a"/>
    </g>
  </g>
  <g>
    <g id="_Radial_Repeat_" data-name="&amp;lt;Radial Repeat&amp;gt;">
      <g>
        <path d="M1225.53,533.38c-1.6-5.92-3.5-10.96-5.26-15-.79-1.82-2.1-4.8-4.17-8.51-2.55-4.57-5.25-8.45-7.78-11.65-.43-.55-.05-1.31.61-1.2,4.26.68,9.36,1.86,14.96,3.97,7.71,2.91,13.91,6.64,18.5,9.92.37.27.76-.2.46-.55-3.77-4.5-7.2-7.26-9.57-8.91-2.64-1.84-6.25-3.89-10.1-6.09-.72-.41-1.87-1.05-3.34-1.8-.12-.06-.23-.12-.35-.18-.69-.34-.53-1.37.21-1.35.88.02,1.76.05,2.64.1,3.7.19,7.39.64,11.07,1.33,19.46,3.64,38.26,14.08,52.62,30.63,2.36,2.72,3.75,4.53,4.47,5.53,2.9,4.03,4.87,7.78,6.19,10.68.23.52-.18,1.03-.71.91-8.61-1.98-15.28-1.88-19.78-1.43-7.96.79-12.63,3.04-23.15,2.71-2.7-.08-5.79-.2-9.81-1.1-7.96-1.78-14.02-5.41-17.71-8.03Z" fill="#2f5e5a"/>
        <path d="M1146.66,647.23c-.1.2-.4.19-.52-.02-.66-1.2-1.31-2.4-1.92-3.62-3.86-7.59-6.81-15.42-8.9-23.35-.78-2.99-1.44-6-1.98-9.01,0,0-1.34-7.55-1.65-15.18-.81-20.16,5.49-38.53,5.49-38.53,4.3-12.52,10.08-21.28,13.47-25.88,6.53-8.88,12.88-14.16,19.33-19.53,7.76-6.46,15.29-11.43,21.95-15.25.65-.37,1.52.15,1.57.95.57,9.68.37,22.53-2.64,37-2.47,11.9-6.18,21.72-9.76,29.31-.34.72.64,1.44,1.16.86,5.54-6.12,12.81-16.01,17.46-30.14,4.69-14.25,4.82-27.06,4.25-35.23-.03-.48.55-.65.84-.25.36.5.71,1,1.07,1.49h0c2.95,4.3,6.88,10.67,10.41,18.88,2.63,6.13,4.75,11.07,5.66,17.95,1.3,9.83-.79,17.67-2.22,22.51,0,0-7.36,25.09-31.61,41.35-2.97,1.99-3.89,2.67-5.74,4.02-.96.7-2.03,1.5-3.26,2.46-1.63,1.27-6.7,5.25-11.64,10.34-.52.53-1.04,1.07-1.55,1.61-2.19,2.31-4.27,4.7-6.25,7.17-3.92,4.88-7.42,10.04-10.49,15.43-.88,1.54-1.72,3.09-2.53,4.67Z" fill="#2f5e5a"/>
      </g>
    </g>
    <g id="_Radial_Repeat_-2" data-name="&amp;lt;Radial Repeat&amp;gt;">
      <g>
        <path d="M1083.23,530.72c5.92-1.6,10.96-3.5,15-5.26,1.82-.79,4.8-2.1,8.51-4.17,4.57-2.55,8.45-5.25,11.65-7.78.55-.43,1.31-.05,1.2.61-.68,4.26-1.86,9.36-3.97,14.96-2.91,7.71-6.64,13.91-9.92,18.5-.27.37.2.76.55.46,4.5-3.77,7.26-7.2,8.91-9.57,1.84-2.64,3.89-6.25,6.09-10.1.41-.72,1.05-1.87,1.8-3.34.06-.12.12-.23.18-.35.34-.69,1.37-.53,1.35.21-.02.88-.05,1.76-.1,2.64-.19,3.7-.64,7.39-1.33,11.07-3.64,19.46-14.08,38.26-30.63,52.62-2.72,2.36-4.53,3.75-5.53,4.47-4.03,2.9-7.78,4.87-10.68,6.19-.52.23-1.03-.18-.91-.71,1.98-8.61,1.88-15.28,1.43-19.78-.79-7.96-3.04-12.63-2.71-23.15.08-2.7.2-5.79,1.1-9.81,1.78-7.96,5.41-14.02,8.03-17.71Z" fill="#2f5e5a"/>
        <path d="M969.38,451.85c-.2-.1-.19-.4.02-.52,1.2-.66,2.4-1.31,3.62-1.92,7.59-3.86,15.42-6.81,23.35-8.9,2.99-.78,6-1.44,9.01-1.98,0,0,7.55-1.34,15.18-1.65,20.16-.81,38.53,5.49,38.53,5.49,12.52,4.3,21.28,10.08,25.88,13.47,8.88,6.53,14.16,12.88,19.53,19.33,6.46,7.76,11.43,15.29,15.25,21.95.37.65-.15,1.52-.95,1.57-9.68.57-22.53.37-37-2.64-11.9-2.47-21.72-6.18-29.31-9.76-.72-.34-1.44.64-.86,1.16,6.12,5.54,16.01,12.81,30.14,17.46,14.25,4.69,27.06,4.82,35.23,4.25.48-.03.65.55.25.84-.5.36-1,.71-1.49,1.07h0c-4.29,2.95-10.66,6.88-18.88,10.41-6.13,2.63-11.07,4.75-17.95,5.66-9.83,1.3-17.67-.79-22.51-2.22,0,0-25.09-7.36-41.35-31.61-1.99-2.97-2.67-3.89-4.02-5.74-.7-.96-1.5-2.03-2.46-3.26-1.27-1.63-5.25-6.7-10.34-11.64-.53-.52-1.07-1.04-1.61-1.55-2.31-2.19-4.7-4.27-7.17-6.25-4.88-3.92-10.04-7.42-15.43-10.49-1.54-.88-3.09-1.72-4.67-2.53Z" fill="#2f5e5a"/>
      </g>
    </g>
    <g id="_Radial_Repeat_-3" data-name="&amp;lt;Radial Repeat&amp;gt;">
      <g>
        <path d="M1085.89,388.42c1.6,5.92,3.5,10.96,5.26,15,.79,1.82,2.1,4.8,4.17,8.51,2.55,4.57,5.25,8.45,7.78,11.65.43.55.05,1.31-.61,1.2-4.26-.68-9.36-1.86-14.96-3.97-7.71-2.91-13.91-6.64-18.5-9.92-.37-.27-.76.2-.46.55,3.77,4.5,7.2,7.26,9.57,8.91,2.64,1.84,6.25,3.89,10.1,6.09.72.41,1.87,1.05,3.34,1.8.12.06.23.12.35.18.69.34.53,1.37-.21,1.35-.88-.02-1.76-.05-2.64-.1-3.7-.19-7.39-.64-11.07-1.33-19.46-3.64-38.26-14.08-52.62-30.63-2.36-2.72-3.75-4.53-4.47-5.53-2.9-4.03-4.87-7.78-6.19-10.68-.23-.52.18-1.03.71-.91,8.61,1.98,15.28,1.88,19.78,1.43,7.96-.79,12.63-3.04,23.15-2.71,2.7.08,5.79.2,9.81,1.1,7.96,1.78,14.02,5.41,17.71,8.03Z" fill="#2f5e5a"/>
        <path d="M1164.76,274.57c.1-.2.4-.19.52.02.66,1.2,1.31,2.4,1.92,3.62,3.86,7.59,6.81,15.42,8.9,23.35.78,2.99,1.44,6,1.98,9.01,0,0,1.34,7.55,1.65,15.18.81,20.16-5.49,38.53-5.49,38.53-4.3,12.52-10.08,21.28-13.47,25.88-6.53,8.88-12.88,14.16-19.33,19.53-7.76,6.46-15.29,11.43-21.95,15.25-.65.37-1.52-.15-1.57-.95-.57-9.68-.37-22.53,2.64-37,2.47-11.9,6.18-21.72,9.76-29.31.34-.72-.64-1.44-1.16-.86-5.54,6.12-12.81,16.01-17.46,30.14-4.69,14.25-4.82,27.06-4.25,35.23.03.48-.55.65-.84.25-.36-.5-.71-1-1.07-1.49h0c-2.95-4.3-6.88-10.67-10.41-18.88-2.63-6.13-4.75-11.07-5.66-17.95-1.3-9.83.79-17.67,2.22-22.51,0,0,7.36-25.09,31.61-41.35,2.97-1.99,3.89-2.67,5.74-4.02.96-.7,2.03-1.5,3.26-2.46,1.63-1.27,6.7-5.25,11.64-10.34.52-.53,1.04-1.07,1.55-1.61,2.19-2.31,4.27-4.7,6.25-7.17,3.92-4.88,7.42-10.04,10.49-15.43.88-1.54,1.72-3.09,2.53-4.67Z" fill="#2f5e5a"/>
      </g>
    </g>
    <g id="_Radial_Repeat_-4" data-name="&amp;lt;Radial Repeat&amp;gt;">
      <g>
        <path d="M1228.2,391.08c-5.92,1.6-10.96,3.5-15,5.26-1.82.79-4.8,2.1-8.51,4.17-4.57,2.55-8.45,5.25-11.65,7.78-.55.43-1.31.05-1.2-.61.68-4.26,1.86-9.36,3.97-14.96,2.91-7.71,6.64-13.91,9.92-18.5.27-.37-.2-.76-.55-.46-4.5,3.77-7.26,7.2-8.91,9.57-1.84,2.64-3.89,6.25-6.09,10.1-.41.72-1.05,1.87-1.8,3.34-.06.12-.12.23-.18.35-.34.69-1.37.53-1.35-.21.02-.88.05-1.76.1-2.64.19-3.7.64-7.39,1.33-11.07,3.64-19.46,14.08-38.26,30.63-52.62,2.72-2.36,4.53-3.75,5.53-4.47,4.03-2.9,7.78-4.87,10.68-6.19.52-.23,1.03.18.91.71-1.98,8.61-1.88,15.28-1.43,19.78.79,7.96,3.04,12.63,2.71,23.15-.08,2.7-.2,5.79-1.1,9.81-1.78,7.96-5.41,14.02-8.03,17.71Z" fill="#2f5e5a"/>
        <path d="M1342.04,469.95c.2.1.19.4-.02.52-1.2.66-2.4,1.31-3.62,1.92-7.59,3.86-15.42,6.81-23.35,8.9-2.99.78-6,1.44-9.01,1.98,0,0-7.55,1.34-15.18,1.65-20.16.81-38.53-5.49-38.53-5.49-12.52-4.3-21.28-10.08-25.88-13.47-8.88-6.53-14.16-12.88-19.53-19.33-6.46-7.76-11.43-15.29-15.25-21.95-.37-.65.15-1.52.95-1.57,9.68-.57,22.53-.37,37,2.64,11.9,2.47,21.72,6.18,29.31,9.76.72.34,1.44-.64.86-1.16-6.12-5.54-16.01-12.81-30.14-17.46-14.25-4.69-27.06-4.82-35.23-4.25-.48.03-.65-.55-.25-.84.5-.36,1-.71,1.49-1.07h0c4.29-2.95,10.66-6.88,18.88-10.41,6.13-2.63,11.07-4.75,17.95-5.66,9.83-1.3,17.67.79,22.51,2.22,0,0,25.09,7.36,41.35,31.61,1.99,2.97,2.67,3.89,4.02,5.74.7.96,1.5,2.03,2.46,3.26,1.27,1.63,5.25,6.7,10.34,11.64.53.52,1.07,1.04,1.61,1.55,2.31,2.19,4.7,4.27,7.17,6.25,4.88,3.92,10.04,7.42,15.43,10.49,1.54.88,3.09,1.72,4.67,2.53Z" fill="#2f5e5a"/>
      </g>
    </g>
  </g>
  <g>
    <path d="M1711.13,348.78c-.63,3.75-.83,7.05-.85,9.76,0,1.22-.02,3.21.24,5.8.32,3.19.91,6.01,1.59,8.41.12.41-.32.76-.69.55-2.41-1.35-5.19-3.17-8.02-5.64-3.9-3.4-6.66-6.93-8.57-9.84-.15-.24-.51-.06-.43.21,1.08,3.42,2.42,5.77,3.41,7.25,1.11,1.65,2.75,3.63,4.5,5.75.33.4.85,1.02,1.55,1.78.06.06.11.12.17.18.32.35-.04.9-.49.72-.53-.21-1.05-.43-1.58-.65-2.2-.94-4.32-2.03-6.36-3.26-10.84-6.46-19.45-16.67-23.71-29.36-.7-2.09-1.06-3.44-1.23-4.17-.67-2.96-.86-5.54-.88-7.5,0-.35.39-.55.68-.36,4.7,3.07,8.78,4.52,11.63,5.28,5.05,1.34,8.49,1.11,14.79,3.67,1.62.66,3.46,1.42,5.66,2.84,4.36,2.81,7.06,6.25,8.59,8.58Z" fill="#2f5e5a"/>
    <path d="M1789.72,301.48c.12-.09.29-.02.31.13.08.83.15,1.67.19,2.5.3,5.21-.02,10.35-.89,15.35-.33,1.89-.74,3.75-1.22,5.59,0,0-1.22,4.62-3.09,9.05-4.94,11.71-13.72,20.79-13.72,20.79-5.98,6.19-11.86,9.89-15.16,11.76-6.36,3.6-11.64,5.19-17,6.81-6.46,1.94-12.37,3.09-17.44,3.77-.5.07-.88-.43-.7-.89,2.26-5.66,5.85-12.96,11.58-20.55,4.71-6.24,9.61-11.02,13.83-14.56.4-.34,0-.97-.47-.76-5.02,2.25-12.1,6.27-18.73,13.29-6.69,7.09-10.22,14.38-12.07,19.18-.11.28-.51.25-.58-.04-.08-.36-.16-.73-.25-1.09h0c-.63-3.12-1.31-7.65-1.23-13.14.02-1.63.21-7.18,1.4-11.54,4.86-17.91,29.7-27.3,37.49-28.82.69-.14,3.59-.67,7.48-1.73,5.03-1.37,8.61-2.78,9.86-3.28,1.55-.63,4.08-1.7,7.1-3.26,6.19-3.2,8.85-5.25,10.53-6.45.95-.68,1.88-1.38,2.79-2.1Z" fill="#2f5e5a"/>
  </g>
</svg>