<?xml version="1.0" encoding="UTF-8"?>
<svg id="Layer_1" data-name="Layer 1" xmlns="http://www.w3.org/2000/svg" viewBox="0 0 1920 1080">
  <g id="_1st_V" data-name="1st_V">
    <g>
      <path d="M884.19,654.68c-8.23-7.16-18-12.62-29.37-16.38-11.35-3.75-24.02-5.63-38.01-5.63s-26.38,1.88-37.73,5.63c-11.37,3.76-21.14,9.22-29.35,16.38-8.21,7.17-14.5,15.82-18.88,25.95-4.37,10.14-6.55,21.59-6.55,34.34s2.18,23.89,6.55,33.93c4.37,10.06,10.66,18.65,18.88,25.82,8.21,7.17,17.98,12.63,29.35,16.38,11.35,3.75,23.93,5.63,37.73,5.63s26.66-1.88,38.01-5.63c11.37-3.75,21.14-9.21,29.37-16.38,8.19-7.17,14.53-15.76,18.98-25.82,4.46-10.05,6.7-21.36,6.7-33.93s-2.24-24.2-6.7-34.34c-4.46-10.13-10.79-18.78-18.98-25.95ZM863.08,752.97c-4.29,10.66-10.39,18.92-18.34,24.77-7.96,5.85-17.26,8.78-27.92,8.78s-19.64-2.92-27.51-8.78c-7.85-5.85-13.97-14.11-18.34-24.77-4.37-10.65-6.55-23.32-6.55-38s2.18-27.65,6.55-38.4c4.37-10.74,10.49-19.04,18.34-24.89,7.87-5.85,17.04-8.79,27.51-8.79s19.96,2.93,27.92,8.79c7.96,5.85,14.06,14.15,18.34,24.89,4.29,10.75,6.42,23.55,6.42,38.4s-2.13,27.34-6.42,38Z" fill="#2f5e5a"/>
      <path d="M1078.54,654.68c-8.23-7.16-18-12.62-29.37-16.38-11.35-3.75-24.02-5.63-38.01-5.63s-26.38,1.88-37.73,5.63c-11.37,3.76-21.14,9.22-29.35,16.38-8.21,7.17-14.5,15.82-18.88,25.95-4.37,10.14-6.55,21.59-6.55,34.34s2.18,23.89,6.55,33.93c4.37,10.06,10.66,18.65,18.88,25.82,8.21,7.17,17.98,12.63,29.35,16.38,11.35,3.75,23.93,5.63,37.73,5.63s26.66-1.88,38.01-5.63c11.37-3.75,21.14-9.21,29.37-16.38,8.19-7.17,14.53-15.76,18.98-25.82,4.46-10.05,6.7-21.36,6.7-33.93s-2.24-24.2-6.7-34.34c-4.46-10.13-10.79-18.78-18.98-25.95ZM1057.43,752.97c-4.29,10.66-10.39,18.92-18.34,24.77-7.96,5.85-17.26,8.78-27.92,8.78s-19.64-2.92-27.51-8.78c-7.85-5.85-13.97-14.11-18.34-24.77-4.37-10.65-6.55-23.32-6.55-38s2.18-27.65,6.55-38.4c4.37-10.74,10.49-19.04,18.34-24.89,7.87-5.85,17.04-8.79,27.51-8.79s19.96,2.93,27.92,8.79c7.96,5.85,14.06,14.15,18.34,24.89,4.29,10.75,6.42,23.55,6.42,38.4s-2.13,27.34-6.42,38Z" fill="#2f5e5a"/>
      <path d="M1237.84,635.16c-3.84.44-7.42.66-10.75.66h-96.71c-3.16,0-6.59-.22-10.37-.66-3.75-.43-7.17-1-10.22-1.7-3.05-.7-5.37-1.23-6.93-1.58v41.41h2.88v-2.36c0-7.51,2.05-13.45,6.16-17.82,4.1-4.37,9.98-6.64,17.68-6.81h30.14v130.52c-.17,3.84-1.62,7.11-4.33,9.82-2.71,2.72-5.97,4.06-9.81,4.06h-2.9v2.62h72.35v-2.62h-2.88c-4.03,0-7.44-1.34-10.24-4.06-2.79-2.71-4.18-5.98-4.18-9.82v-130.52h30.39c7.51.17,13.42,2.44,17.7,6.81,4.27,4.37,6.33,10.31,6.16,17.82v2.36h2.88v-41.41c-1.24.52-3.41,1.1-6.57,1.71-3.14.62-6.63,1.14-10.47,1.57Z" fill="#2f5e5a"/>
      <path d="M1367.56,725.19c-4.01-6.63-9.51-11.7-16.51-15.2l-41.14-25.42c-3.33-1.92-6.33-3.84-9.04-5.77-2.71-1.92-4.8-4.15-6.29-6.68-1.47-2.54-2.05-5.37-1.71-8.52.36-6.11,3.11-11.01,8.25-14.67,5.16-3.67,11.94-5.5,20.33-5.5,10.47,0,18.51,2.36,24.1,7.07,5.59,4.71,8.38,11.1,8.38,19.13h2.37l3.41-31.97s-.11-.03-.15-.05l.15-2.58h-14.42c-1.99-.23-4.07-.45-6.29-.65-4.88-.44-9.83-.83-14.8-1.18-4.99-.35-9.21-.52-12.71-.52-8.74,0-16.51,1.57-23.33,4.71-6.8,3.15-12.26,7.69-16.38,13.63-4.1,5.94-6.59,13.11-7.47,21.49-1.05,8.92.38,17.13,4.33,24.65,3.92,7.51,10.26,13.53,19,18.08l37.2,23.59c7,3.67,12.03,7.39,15.08,11.14s4.59,7.99,4.59,12.71c0,6.28-2.54,11.79-7.59,16.51-5.08,4.71-12.67,7.07-22.8,7.07-9.28,0-17.21-1.96-23.87-5.9-6.63-3.92-11.65-9.21-15.06-15.85-3.41-6.64-4.84-13.9-4.33-21.76h-2.09c-2.09,3.32-3.84,7.47-5.25,12.45-1.41,4.98-2.18,9.96-2.37,14.94-.17,4.98.45,9.21,1.86,12.71,2.43,2.62,5.97,4.98,10.6,7.08,4.63,2.09,10.17,3.75,16.64,4.97,6.46,1.23,13.46,1.83,20.99,1.83,12.22,0,22.82-1.88,31.82-5.63,9-3.75,16.08-9.21,21.24-16.38,5.14-7.17,8-15.63,8.51-25.42.53-9.44-1.22-17.47-5.25-24.11Z" fill="#2f5e5a"/>
      <path d="M744.07,805c-10.24-9.35-20.16-20.23-29.75-32.63-7.7-9.44-14.59-18.17-20.71-26.21-6.12-8.03-12.31-15.2-18.6-21.49-6.29-6.29-13.37-11.53-21.24-15.72,9.09.52,17.45-1.27,25.04-5.37,7.59-4.11,13.71-10.05,18.34-17.82,4.63-7.77,6.95-16.82,6.95-27.13,0-9.26-2.03-17.04-6.04-23.32-4.01-6.29-9.3-11.27-15.85-14.94-6.57-3.67-13.76-6.33-21.63-8-7.87-1.65-15.72-2.48-23.59-2.48h-89.9v2.62h3.41c4.54,0,8.42,1.61,11.67,4.84,3.22,3.24,4.93,7.12,5.1,11.67v145.2c-.17,4.71-1.92,8.65-5.23,11.79-3.33,3.15-7.17,4.71-11.54,4.71h-3.41v2.62h79.41v-2.62h-3.14c-4.54,0-8.47-1.61-11.79-4.84-3.33-3.23-4.97-7.12-4.97-11.67v-152.8h19.9c6.29,0,12.11,1.44,17.45,4.33,5.31,2.88,9.6,7.03,12.84,12.45,3.22,5.42,5.01,12.06,5.37,19.92.17,2.98.13,5.5-.15,7.59-.26,2.1-.55,3.76-.92,4.98-1.05,5.95-3.01,10.93-5.89,14.94-2.88,4.02-6.21,7.12-9.96,9.31-3.75,2.19-7.55,3.75-11.39,4.71-3.86.96-7.36,1.44-10.49,1.44h-8.13v2.62c2.45.52,4.84,2.27,7.21,5.25,2.37,2.96,4.84,6.46,7.47,10.48,2.11,2.79,4.63,6.38,7.61,10.74,2.96,4.37,6.14,9.17,9.56,14.42,3.41,5.24,6.91,10.57,10.49,15.99,3.56,5.42,7.06,10.66,10.47,15.73,3.41,5.07,6.51,9.52,9.3,13.36,7.51,11.36,15.46,20.88,23.87,28.57,8.38,7.68,16.89,13.76,25.55,18.22,8.64,4.46,17.3,7.55,25.94,9.3,8.66,1.75,17,2.5,25.04,2.23,8.02-.26,15.63-1.31,22.8-3.15,7.17-1.83,13.52-4.15,19.13-6.94v-2.62c-15.55-.17-29.5-2.92-41.8-8.25-12.33-5.33-23.59-12.67-33.81-22.01Z" fill="#2f5e5a"/>
    </g>
    <g>
      <path d="M851.84,839.35h-11.01l-1.89,5.37h-4.5l9.42-26.32h4.99l9.42,26.32h-4.54l-1.89-5.37ZM850.63,835.83l-4.27-12.22-4.31,12.22h8.59Z" fill="#2f5e5a"/>
      <path d="M879.5,824.51c1.27-.64,2.69-.96,4.25-.96,1.84,0,3.5.44,4.99,1.32,1.49.88,2.66,2.14,3.52,3.76.86,1.63,1.29,3.49,1.29,5.58s-.43,3.96-1.29,5.62-2.04,2.94-3.54,3.86c-1.5.92-3.16,1.38-4.97,1.38-1.61,0-3.04-.32-4.29-.95-1.25-.63-2.24-1.44-2.97-2.42v3.03h-4.31v-27.99h4.31v10.25c.73-1.01,1.73-1.83,3.01-2.48ZM888.28,830.48c-.59-1.05-1.37-1.84-2.35-2.38-.97-.54-2.01-.81-3.12-.81s-2.11.28-3.08.83c-.97.56-1.75,1.36-2.35,2.42s-.89,2.31-.89,3.74.3,2.69.89,3.76c.59,1.07,1.37,1.88,2.35,2.44.97.56,2,.83,3.08.83s2.15-.28,3.12-.85,1.75-1.39,2.35-2.48c.59-1.08.89-2.34.89-3.78s-.3-2.68-.89-3.73Z" fill="#2f5e5a"/>
      <path d="M904.65,824.43c1.05-.59,2.29-.89,3.73-.89v4.46h-1.1c-1.69,0-2.97.43-3.84,1.29-.87.86-1.3,2.34-1.3,4.46v10.97h-4.31v-20.84h4.31v3.03c.63-1.06,1.47-1.88,2.51-2.48Z" fill="#2f5e5a"/>
      <path d="M912.22,828.65c.87-1.61,2.05-2.87,3.55-3.76,1.5-.89,3.16-1.34,4.97-1.34,1.64,0,3.07.32,4.29.96,1.22.64,2.2,1.44,2.93,2.4v-3.03h4.35v20.84h-4.35v-3.1c-.73.98-1.73,1.8-2.99,2.46-1.26.66-2.7.98-4.31.98-1.79,0-3.43-.46-4.92-1.38-1.49-.92-2.67-2.21-3.54-3.86s-1.3-3.52-1.3-5.62.43-3.95,1.3-5.56ZM927.08,830.54c-.59-1.06-1.37-1.87-2.33-2.42-.96-.55-1.99-.83-3.1-.83s-2.14.27-3.1.81c-.96.54-1.73,1.34-2.33,2.38-.59,1.05-.89,2.29-.89,3.73s.3,2.7.89,3.78c.59,1.08,1.37,1.91,2.34,2.48s2,.85,3.08.85,2.14-.28,3.1-.83c.96-.55,1.73-1.37,2.33-2.44.59-1.07.89-2.33.89-3.76s-.3-2.69-.89-3.74Z" fill="#2f5e5a"/>
      <path d="M952.91,824.56c1.3.68,2.31,1.69,3.04,3.03.73,1.34,1.1,2.95,1.1,4.84v12.29h-4.27v-11.65c0-1.87-.47-3.3-1.4-4.29-.93-1-2.21-1.49-3.82-1.49s-2.89.5-3.84,1.49c-.95,1-1.42,2.43-1.42,4.29v11.65h-4.31v-20.84h4.31v2.38c.71-.86,1.61-1.53,2.7-2,1.1-.48,2.26-.72,3.5-.72,1.64,0,3.11.34,4.41,1.02Z" fill="#2f5e5a"/>
      <path d="M962.4,828.65c.87-1.61,2.05-2.87,3.55-3.76,1.5-.89,3.17-1.34,5.01-1.34,1.36,0,2.7.3,4.03.89,1.32.59,2.38,1.38,3.16,2.36v-10.06h4.35v27.99h-4.35v-3.14c-.71,1.01-1.68,1.84-2.93,2.5s-2.68.98-4.29.98c-1.82,0-3.47-.46-4.97-1.38-1.5-.92-2.68-2.21-3.55-3.86s-1.3-3.52-1.3-5.62.43-3.95,1.3-5.56ZM977.27,830.54c-.59-1.06-1.37-1.87-2.33-2.42-.96-.55-1.99-.83-3.1-.83s-2.14.27-3.1.81c-.96.54-1.73,1.34-2.33,2.38-.59,1.05-.89,2.29-.89,3.73s.3,2.7.89,3.78c.59,1.08,1.37,1.91,2.34,2.48s2,.85,3.08.85,2.14-.28,3.1-.83c.96-.55,1.73-1.37,2.33-2.44.59-1.07.89-2.33.89-3.76s-.3-2.69-.89-3.74Z" fill="#2f5e5a"/>
      <path d="M1005.33,824.51c1.27-.64,2.69-.96,4.25-.96,1.84,0,3.5.44,4.99,1.32,1.49.88,2.66,2.14,3.52,3.76.86,1.63,1.29,3.49,1.29,5.58s-.43,3.96-1.29,5.62-2.04,2.94-3.54,3.86c-1.5.92-3.16,1.38-4.97,1.38-1.61,0-3.04-.32-4.29-.95s-2.24-1.44-2.97-2.42v3.03h-4.31v-27.99h4.31v10.25c.73-1.01,1.73-1.83,3.01-2.48ZM1014.1,830.48c-.59-1.05-1.37-1.84-2.34-2.38-.97-.54-2.01-.81-3.12-.81s-2.11.28-3.08.83c-.97.56-1.75,1.36-2.34,2.42-.59,1.06-.89,2.31-.89,3.74s.3,2.69.89,3.76c.59,1.07,1.37,1.88,2.34,2.44.97.56,2,.83,3.08.83s2.15-.28,3.12-.85,1.75-1.39,2.34-2.48c.59-1.08.89-2.34.89-3.78s-.3-2.68-.89-3.73Z" fill="#2f5e5a"/>
      <path d="M1042.41,823.88l-12.78,30.63h-4.46l4.24-10.14-8.21-20.5h4.8l5.86,15.88,6.09-15.88h4.46Z" fill="#2f5e5a"/>
      <path d="M1071.34,839.35h-11.01l-1.89,5.37h-4.5l9.42-26.32h4.99l9.42,26.32h-4.54l-1.89-5.37ZM1070.13,835.83l-4.27-12.22-4.31,12.22h8.58Z" fill="#2f5e5a"/>
      <path d="M1086.17,841.24h8.89v3.48h-13.2v-26.29h4.31v22.81Z" fill="#2f5e5a"/>
      <path d="M1126.34,818.44v26.29h-4.31v-18l-8.02,18h-2.99l-8.06-18v18h-4.31v-26.29h4.65l9.23,20.61,9.19-20.61h4.61Z" fill="#2f5e5a"/>
      <path d="M1135.71,843.72c-1.59-.89-2.84-2.16-3.74-3.78-.91-1.63-1.36-3.51-1.36-5.65s.47-4,1.4-5.63c.93-1.64,2.21-2.9,3.82-3.78s3.42-1.32,5.41-1.32,3.79.44,5.41,1.32,2.89,2.14,3.82,3.78c.93,1.64,1.4,3.52,1.4,5.63s-.48,4-1.44,5.64-2.26,2.91-3.91,3.8c-1.65.89-3.47,1.34-5.46,1.34s-3.74-.45-5.33-1.34ZM1144.17,840.52c.97-.53,1.76-1.32,2.36-2.38.61-1.06.91-2.34.91-3.86s-.29-2.79-.87-3.84c-.58-1.05-1.35-1.83-2.31-2.36-.96-.53-1.99-.79-3.1-.79s-2.14.26-3.08.79c-.95.53-1.7,1.32-2.25,2.36-.55,1.05-.83,2.33-.83,3.84,0,2.24.57,3.98,1.72,5.2,1.15,1.22,2.59,1.83,4.33,1.83,1.11,0,2.15-.26,3.12-.79Z" fill="#2f5e5a"/>
      <path d="M1175.01,823.88v20.84h-4.31v-2.46c-.68.86-1.57,1.53-2.67,2.02-1.1.49-2.26.74-3.5.74-1.64,0-3.11-.34-4.41-1.02s-2.32-1.69-3.06-3.03c-.74-1.34-1.12-2.95-1.12-4.84v-12.25h4.27v11.61c0,1.87.47,3.3,1.4,4.29s2.21,1.49,3.82,1.49,2.89-.5,3.84-1.49c.95-1,1.42-2.43,1.42-4.29v-11.61h4.31Z" fill="#2f5e5a"/>
      <path d="M1183.84,844.17c-1.3-.59-2.33-1.4-3.08-2.42s-1.16-2.16-1.21-3.42h4.46c.08.88.5,1.62,1.27,2.21.77.59,1.73.89,2.89.89s2.15-.23,2.82-.7c.67-.47,1-1.06,1-1.8,0-.78-.37-1.36-1.12-1.74-.74-.38-1.92-.79-3.54-1.25-1.56-.43-2.84-.84-3.82-1.25s-1.83-1.02-2.55-1.85-1.08-1.93-1.08-3.29c0-1.11.33-2.12.98-3.04.66-.92,1.59-1.64,2.82-2.17,1.22-.53,2.63-.79,4.22-.79,2.37,0,4.28.6,5.73,1.8,1.45,1.2,2.22,2.83,2.33,4.9h-4.31c-.08-.93-.45-1.68-1.13-2.23-.68-.55-1.6-.83-2.76-.83s-2,.21-2.61.64c-.61.43-.91,1-.91,1.7,0,.56.2,1.02.61,1.4.4.38.89.67,1.47.89.58.21,1.44.49,2.57.81,1.51.4,2.75.81,3.72,1.23s1.81,1.03,2.52,1.83c.71.81,1.07,1.88,1.1,3.21,0,1.19-.33,2.24-.98,3.18-.66.93-1.58,1.66-2.78,2.19s-2.6.79-4.22.79-3.11-.3-4.41-.89Z" fill="#2f5e5a"/>
      <path d="M1204.04,844.17c-1.3-.59-2.33-1.4-3.08-2.42s-1.16-2.16-1.21-3.42h4.46c.08.88.5,1.62,1.27,2.21.77.59,1.73.89,2.89.89s2.15-.23,2.82-.7c.67-.47,1-1.06,1-1.8,0-.78-.37-1.36-1.12-1.74-.74-.38-1.92-.79-3.54-1.25-1.56-.43-2.84-.84-3.82-1.25s-1.83-1.02-2.55-1.85-1.08-1.93-1.08-3.29c0-1.11.33-2.12.98-3.04.66-.92,1.59-1.64,2.82-2.17,1.22-.53,2.63-.79,4.22-.79,2.37,0,4.28.6,5.73,1.8,1.45,1.2,2.22,2.83,2.33,4.9h-4.31c-.08-.93-.45-1.68-1.13-2.23-.68-.55-1.6-.83-2.76-.83s-2,.21-2.61.64c-.61.43-.91,1-.91,1.7,0,.56.2,1.02.61,1.4.4.38.89.67,1.47.89.58.21,1.44.49,2.57.81,1.51.4,2.75.81,3.72,1.23s1.81,1.03,2.52,1.83c.71.81,1.07,1.88,1.1,3.21,0,1.19-.33,2.24-.98,3.18-.66.93-1.58,1.66-2.78,2.19s-2.6.79-4.22.79-3.11-.3-4.41-.89Z" fill="#2f5e5a"/>
      <path d="M1220.94,828.65c.87-1.61,2.05-2.87,3.55-3.76,1.5-.89,3.16-1.34,4.97-1.34,1.64,0,3.07.32,4.29.96,1.22.64,2.2,1.44,2.93,2.4v-3.03h4.35v20.84h-4.35v-3.1c-.73.98-1.73,1.8-2.99,2.46-1.26.66-2.7.98-4.31.98-1.79,0-3.43-.46-4.92-1.38-1.49-.92-2.67-2.21-3.54-3.86s-1.3-3.52-1.3-5.62.43-3.95,1.3-5.56ZM1235.81,830.54c-.59-1.06-1.37-1.87-2.33-2.42-.96-.55-1.99-.83-3.1-.83s-2.14.27-3.1.81c-.96.54-1.73,1.34-2.33,2.38-.59,1.05-.89,2.29-.89,3.73s.3,2.7.89,3.78c.59,1.08,1.37,1.91,2.34,2.48s2,.85,3.08.85,2.14-.28,3.1-.83c.96-.55,1.73-1.37,2.33-2.44.59-1.07.89-2.33.89-3.76s-.3-2.69-.89-3.74Z" fill="#2f5e5a"/>
      <path d="M1275.58,826c-.68-1.31-1.63-2.3-2.84-2.97-1.21-.67-2.61-1-4.2-1-1.74,0-3.29.39-4.65,1.17s-2.43,1.89-3.2,3.33c-.77,1.44-1.15,3.1-1.15,4.99s.38,3.56,1.15,5.01c.77,1.45,1.83,2.57,3.2,3.35s2.91,1.17,4.65,1.17c2.35,0,4.25-.66,5.71-1.97,1.46-1.31,2.36-3.09,2.69-5.33h-9.87v-3.44h14.49v3.37c-.28,2.04-1,3.92-2.17,5.64s-2.7,3.08-4.58,4.1c-1.88,1.02-3.97,1.53-6.26,1.53-2.47,0-4.73-.57-6.77-1.72-2.04-1.15-3.66-2.74-4.86-4.78-1.2-2.04-1.8-4.35-1.8-6.92s.6-4.88,1.8-6.92c1.2-2.04,2.82-3.64,4.88-4.78s4.31-1.72,6.75-1.72c2.8,0,5.29.69,7.47,2.06,2.18,1.38,3.76,3.32,4.75,5.84h-5.18Z" fill="#2f5e5a"/>
      <path d="M1292.61,824.43c1.05-.59,2.29-.89,3.73-.89v4.46h-1.1c-1.69,0-2.97.43-3.84,1.29-.87.86-1.3,2.34-1.3,4.46v10.97h-4.31v-20.84h4.31v3.03c.63-1.06,1.47-1.88,2.51-2.48Z" fill="#2f5e5a"/>
      <path d="M1304.02,843.72c-1.59-.89-2.84-2.16-3.74-3.78-.91-1.63-1.36-3.51-1.36-5.65s.47-4,1.4-5.63c.93-1.64,2.21-2.9,3.82-3.78s3.42-1.32,5.41-1.32,3.79.44,5.41,1.32,2.89,2.14,3.82,3.78c.93,1.64,1.4,3.52,1.4,5.63s-.48,4-1.44,5.64-2.26,2.91-3.91,3.8c-1.65.89-3.47,1.34-5.46,1.34s-3.74-.45-5.33-1.34ZM1312.47,840.52c.97-.53,1.76-1.32,2.36-2.38.61-1.06.91-2.34.91-3.86s-.29-2.79-.87-3.84c-.58-1.05-1.35-1.83-2.31-2.36-.96-.53-1.99-.79-3.1-.79s-2.14.26-3.08.79c-.95.53-1.7,1.32-2.25,2.36-.55,1.05-.83,2.33-.83,3.84,0,2.24.57,3.98,1.72,5.2,1.15,1.22,2.59,1.83,4.33,1.83,1.11,0,2.15-.26,3.12-.79Z" fill="#2f5e5a"/>
      <path d="M1343.31,823.88v20.84h-4.31v-2.46c-.68.86-1.57,1.53-2.67,2.02-1.1.49-2.26.74-3.5.74-1.64,0-3.11-.34-4.41-1.02s-2.32-1.69-3.06-3.03c-.74-1.34-1.12-2.95-1.12-4.84v-12.25h4.27v11.61c0,1.87.47,3.3,1.4,4.29s2.21,1.49,3.82,1.49,2.89-.5,3.84-1.49c.95-1,1.42-2.43,1.42-4.29v-11.61h4.31Z" fill="#2f5e5a"/>
      <path d="M1356.28,824.52c1.26-.66,2.69-.98,4.27-.98,1.82,0,3.47.45,4.97,1.34,1.5.9,2.68,2.15,3.54,3.76s1.29,3.47,1.29,5.56-.43,3.96-1.29,5.62-2.04,2.94-3.54,3.86c-1.5.92-3.16,1.38-4.97,1.38-1.59,0-3-.32-4.24-.96s-2.24-1.44-3.03-2.4v12.93h-4.31v-30.75h4.31v3.06c.73-.96,1.73-1.76,2.99-2.42ZM1365.08,830.48c-.59-1.05-1.37-1.84-2.34-2.38-.97-.54-2.01-.81-3.12-.81s-2.11.28-3.08.83c-.97.56-1.75,1.36-2.34,2.42-.59,1.06-.89,2.31-.89,3.74s.3,2.69.89,3.76c.59,1.07,1.37,1.88,2.34,2.44.97.56,2,.83,3.08.83s2.15-.28,3.12-.85,1.75-1.39,2.34-2.48c.59-1.08.89-2.34.89-3.78s-.3-2.68-.89-3.73Z" fill="#2f5e5a"/>
    </g>
  </g>
  <g>
    <g id="_Radial_Repeat_" data-name="&amp;lt;Radial Repeat&amp;gt;">
      <g>
        <path d="M1048.36,420.17c-2.59-5.27-5.3-9.64-7.7-13.11-1.08-1.56-2.85-4.12-5.48-7.22-3.24-3.82-6.49-6.97-9.45-9.51-.51-.44-.29-1.22.35-1.24,4.13-.15,9.13.02,14.77.97,7.78,1.31,14.28,3.67,19.2,5.9.4.18.68-.32.33-.6-4.36-3.53-8.09-5.49-10.62-6.6-2.82-1.24-6.58-2.51-10.6-3.85-.76-.25-1.94-.64-3.47-1.07-.12-.03-.24-.07-.36-.1-.71-.2-.75-1.18-.05-1.3.83-.14,1.66-.27,2.5-.39,3.51-.5,7.06-.76,10.64-.79,18.94-.17,38.51,6.18,55.04,19.07,2.72,2.12,4.36,3.57,5.22,4.37,3.46,3.25,6,6.4,7.77,8.89.31.44.02,1-.5.98-8.45-.27-14.69,1.05-18.83,2.29-7.33,2.21-11.3,5.18-21.23,6.81-2.55.42-5.47.88-9.41.78-7.8-.21-14.16-2.5-18.1-4.28Z" fill="#2f5e5a"/>
        <path d="M995.27,541.56c-.06.21-.34.25-.49.07-.84-1-1.67-2.02-2.47-3.04-5.02-6.41-9.23-13.23-12.65-20.29-1.29-2.66-2.46-5.36-3.52-8.09,0,0-2.65-6.84-4.34-13.95-4.47-18.77-1.94-37.18-1.94-37.18,1.73-12.55,5.55-21.83,7.88-26.78,4.5-9.54,9.49-15.66,14.55-21.89,6.1-7.49,12.25-13.55,17.8-18.36.54-.47,1.45-.14,1.64.6,2.32,8.98,4.49,21.08,4.33,35.22-.13,11.63-1.81,21.53-3.76,29.31-.19.74.86,1.24,1.25.6,4.08-6.76,9.08-17.39,10.85-31.51,1.78-14.24-.45-26.29-2.5-33.85-.12-.44.4-.71.74-.39.43.4.85.8,1.28,1.21h0c3.56,3.49,8.42,8.75,13.24,15.81,3.6,5.27,6.5,9.52,8.62,15.81,3.03,8.99,2.5,16.73,2.06,21.54,0,0-2.3,24.91-22.06,44.63-2.42,2.42-3.16,3.22-4.65,4.83-.77.83-1.63,1.78-2.6,2.9-1.29,1.49-5.32,6.17-9.03,11.84-.39.6-.78,1.19-1.16,1.8-1.63,2.57-3.15,5.2-4.55,7.88-2.78,5.3-5.11,10.79-7.01,16.41-.54,1.6-1.04,3.22-1.51,4.85Z" fill="#2f5e5a"/>
      </g>
    </g>
    <g id="_Radial_Repeat_-2" data-name="&amp;lt;Radial Repeat&amp;gt;">
      <g>
        <path d="M914.29,443.85c5.27-2.59,9.64-5.3,13.11-7.7,1.56-1.08,4.12-2.85,7.22-5.48,3.82-3.24,6.97-6.49,9.51-9.45.44-.51,1.22-.29,1.24.35.15,4.13-.02,9.13-.97,14.77-1.31,7.78-3.67,14.28-5.9,19.2-.18.4.32.68.6.33,3.53-4.36,5.49-8.09,6.6-10.62,1.24-2.82,2.51-6.58,3.85-10.6.25-.76.64-1.94,1.07-3.47.03-.12.07-.24.1-.36.2-.71,1.18-.75,1.3-.05.14.83.27,1.66.39,2.5.5,3.51.76,7.06.79,10.64.17,18.94-6.18,38.51-19.07,55.04-2.12,2.72-3.57,4.36-4.37,5.22-3.25,3.46-6.4,6-8.89,7.77-.44.31-1,.02-.98-.5.27-8.45-1.05-14.69-2.29-18.83-2.21-7.33-5.18-11.3-6.81-21.23-.42-2.55-.88-5.47-.78-9.41.21-7.8,2.5-14.16,4.28-18.1Z" fill="#2f5e5a"/>
        <path d="M792.9,390.76c-.21-.06-.25-.34-.07-.49,1-.84,2.02-1.67,3.04-2.47,6.41-5.02,13.23-9.23,20.29-12.65,2.66-1.29,5.36-2.46,8.09-3.52,0,0,6.84-2.65,13.95-4.34,18.77-4.47,37.18-1.94,37.18-1.94,12.55,1.73,21.83,5.55,26.78,7.88,9.54,4.5,15.66,9.49,21.89,14.55,7.49,6.1,13.55,12.25,18.36,17.8.47.54.14,1.45-.6,1.64-8.98,2.32-21.08,4.49-35.22,4.33-11.63-.13-21.53-1.81-29.31-3.76-.74-.19-1.24.86-.6,1.25,6.76,4.08,17.39,9.08,31.51,10.85,14.24,1.78,26.29-.45,33.85-2.5.44-.12.71.4.39.74-.4.43-.8.85-1.21,1.28h0c-3.49,3.56-8.74,8.43-15.8,13.25-5.27,3.6-9.52,6.5-15.81,8.62-8.99,3.03-16.73,2.5-21.54,2.06,0,0-24.91-2.3-44.63-22.06-2.42-2.42-3.22-3.16-4.83-4.65-.83-.77-1.78-1.63-2.9-2.6-1.49-1.29-6.17-5.32-11.84-9.03-.6-.39-1.19-.78-1.8-1.16-2.57-1.63-5.2-3.15-7.88-4.55-5.3-2.78-10.79-5.11-16.41-7.01-1.6-.54-3.22-1.04-4.85-1.51Z" fill="#2f5e5a"/>
      </g>
    </g>
    <g id="_Radial_Repeat_-3" data-name="&amp;lt;Radial Repeat&amp;gt;">
      <g>
        <path d="M890.6,309.77c2.59,5.27,5.3,9.64,7.7,13.11,1.08,1.56,2.85,4.12,5.48,7.22,3.24,3.82,6.49,6.97,9.45,9.51.51.44.29,1.22-.35,1.24-4.13.15-9.13-.02-14.77-.97-7.78-1.31-14.28-3.67-19.2-5.9-.4-.18-.68.32-.33.6,4.36,3.53,8.09,5.49,10.62,6.6,2.82,1.24,6.58,2.51,10.6,3.85.76.25,1.94.64,3.47,1.07.12.03.24.07.36.1.71.2.75,1.18.05,1.3-.83.14-1.66.27-2.5.39-3.51.5-7.06.76-10.64.79-18.94.17-38.51-6.18-55.04-19.07-2.72-2.12-4.36-3.57-5.22-4.37-3.46-3.25-6-6.4-7.77-8.89-.31-.44-.02-1,.5-.98,8.45.27,14.69-1.05,18.83-2.29,7.33-2.21,11.3-5.18,21.23-6.81,2.55-.42,5.47-.88,9.41-.78,7.8.21,14.16,2.5,18.1,4.28Z" fill="#2f5e5a"/>
        <path d="M943.69,188.38c.06-.21.34-.25.49-.07.84,1,1.67,2.02,2.47,3.04,5.02,6.41,9.23,13.23,12.65,20.29,1.29,2.66,2.46,5.36,3.52,8.09,0,0,2.65,6.84,4.34,13.95,4.47,18.77,1.94,37.18,1.94,37.18-1.73,12.55-5.55,21.83-7.88,26.78-4.5,9.54-9.49,15.66-14.55,21.89-6.1,7.49-12.25,13.55-17.8,18.36-.54.47-1.45.14-1.64-.6-2.32-8.98-4.49-21.08-4.33-35.22.13-11.63,1.81-21.53,3.76-29.31.19-.74-.86-1.24-1.25-.6-4.08,6.76-9.08,17.39-10.85,31.51-1.78,14.24.45,26.29,2.5,33.85.12.44-.4.71-.74.39-.43-.4-.85-.8-1.28-1.21h0c-3.56-3.49-8.42-8.75-13.24-15.81-3.6-5.27-6.5-9.52-8.62-15.81-3.03-8.99-2.5-16.73-2.06-21.54,0,0,2.3-24.91,22.06-44.63,2.42-2.42,3.16-3.22,4.65-4.83.77-.83,1.63-1.78,2.6-2.9,1.29-1.49,5.32-6.17,9.03-11.84.39-.6.78-1.19,1.16-1.8,1.63-2.57,3.15-5.2,4.55-7.88,2.78-5.3,5.11-10.79,7.01-16.41.54-1.6,1.04-3.22,1.51-4.85Z" fill="#2f5e5a"/>
      </g>
    </g>
    <g id="_Radial_Repeat_-4" data-name="&amp;lt;Radial Repeat&amp;gt;">
      <g>
        <path d="M1024.68,286.09c-5.27,2.59-9.64,5.3-13.11,7.7-1.56,1.08-4.12,2.85-7.22,5.48-3.82,3.24-6.97,6.49-9.51,9.45-.44.51-1.22.29-1.24-.35-.15-4.13.02-9.13.97-14.77,1.31-7.78,3.67-14.28,5.9-19.2.18-.4-.32-.68-.6-.33-3.53,4.36-5.49,8.09-6.6,10.62-1.24,2.82-2.51,6.58-3.85,10.6-.25.76-.64,1.94-1.07,3.47-.03.12-.07.24-.1.36-.2.71-1.18.75-1.3.05-.14-.83-.27-1.66-.39-2.5-.5-3.51-.76-7.06-.79-10.64-.17-18.94,6.18-38.51,19.07-55.04,2.12-2.72,3.57-4.36,4.37-5.22,3.25-3.46,6.4-6,8.89-7.77.44-.31,1-.02.98.5-.27,8.45,1.05,14.69,2.29,18.83,2.21,7.33,5.18,11.3,6.81,21.23.42,2.55.88,5.47.78,9.41-.21,7.8-2.5,14.16-4.28,18.1Z" fill="#2f5e5a"/>
        <path d="M1146.07,339.18c.21.06.25.34.07.49-1,.84-2.02,1.67-3.04,2.47-6.41,5.02-13.23,9.23-20.29,12.65-2.66,1.29-5.36,2.46-8.09,3.52,0,0-6.84,2.65-13.95,4.34-18.77,4.47-37.18,1.94-37.18,1.94-12.55-1.73-21.83-5.55-26.78-7.88-9.54-4.5-15.66-9.49-21.89-14.55-7.49-6.1-13.55-12.25-18.36-17.8-.47-.54-.14-1.45.6-1.64,8.98-2.32,21.08-4.49,35.22-4.33,11.63.13,21.53,1.81,29.31,3.76.74.19,1.24-.86.6-1.25-6.76-4.08-17.39-9.08-31.51-10.85-14.24-1.78-26.29.45-33.85,2.5-.44.12-.71-.4-.39-.74.4-.43.8-.85,1.21-1.28h0c3.49-3.56,8.74-8.43,15.8-13.25,5.27-3.6,9.52-6.5,15.81-8.62,8.99-3.03,16.73-2.5,21.54-2.06,0,0,24.91,2.3,44.63,22.06,2.42,2.42,3.22,3.16,4.83,4.65.83.77,1.78,1.63,2.9,2.6,1.49,1.29,6.17,5.32,11.84,9.03.6.39,1.19.78,1.8,1.16,2.57,1.63,5.2,3.15,7.88,4.55,5.3,2.78,10.79,5.11,16.41,7.01,1.6.54,3.22,1.04,4.85,1.51Z" fill="#2f5e5a"/>
      </g>
    </g>
  </g>
  <g>
    <path d="M813.56,601.44c-.56,3.37-.75,6.35-.76,8.79,0,1.1-.02,2.9.22,5.23.29,2.87.82,5.42,1.43,7.58.1.37-.29.68-.62.5-2.17-1.21-4.67-2.86-7.22-5.08-3.52-3.06-6-6.24-7.72-8.86-.14-.21-.46-.05-.39.19.97,3.08,2.18,5.2,3.07,6.53,1,1.48,2.47,3.27,4.05,5.18.3.36.77.92,1.39,1.6.05.05.1.11.15.16.29.32-.04.81-.44.65-.48-.19-.95-.39-1.42-.59-1.98-.85-3.89-1.83-5.73-2.93-9.77-5.82-17.52-15.01-21.36-26.45-.63-1.88-.95-3.1-1.1-3.76-.61-2.66-.78-4.99-.79-6.76,0-.31.35-.5.61-.32,4.23,2.77,7.91,4.07,10.47,4.75,4.55,1.21,7.65,1,13.32,3.3,1.46.59,3.12,1.28,5.1,2.56,3.92,2.53,6.36,5.63,7.74,7.73Z" fill="#2f5e5a"/>
    <path d="M884.35,558.83c.11-.08.26-.02.28.12.07.75.13,1.5.17,2.25.27,4.69-.02,9.32-.8,13.83-.3,1.7-.67,3.38-1.1,5.04,0,0-1.1,4.16-2.78,8.15-4.45,10.54-12.35,18.72-12.35,18.72-5.39,5.58-10.68,8.91-13.65,10.59-5.73,3.25-10.48,4.68-15.31,6.13-5.82,1.75-11.14,2.78-15.71,3.4-.45.06-.79-.39-.63-.8,2.04-5.1,5.27-11.67,10.43-18.51,4.24-5.62,8.66-9.93,12.45-13.11.36-.3,0-.87-.43-.68-4.52,2.02-10.9,5.64-16.87,11.97-6.02,6.38-9.21,12.95-10.88,17.28-.1.25-.46.22-.52-.04-.07-.33-.15-.66-.22-.99h0c-.57-2.81-1.18-6.89-1.11-11.83.02-1.47.19-6.46,1.26-10.39,4.38-16.13,26.75-24.59,33.77-25.96.62-.12,3.24-.6,6.74-1.56,4.53-1.24,7.75-2.5,8.88-2.96,1.4-.56,3.68-1.53,6.4-2.94,5.58-2.88,7.97-4.73,9.48-5.81.85-.61,1.69-1.24,2.52-1.89Z" fill="#2f5e5a"/>
  </g>
</svg>